Aldone-Light.ufo
<glyph name="exclam" format="2">
	<advance width="183"/>
	<unicode hex="0021"/>
	<outline>
		<contour>
			<point x="113" y="694" type="line" smooth="yes"/>
			<point x="113" y="697"/>
			<point x="110" y="700"/>
			<point x="107" y="700" type="curve" smooth="yes"/>
			<point x="76" y="700" type="line" smooth="yes"/>
			<point x="73" y="700"/>
			<point x="70" y="697"/>
			<point x="70" y="694" type="curve" smooth="yes"/>
			<point x="70" y="186" type="line" smooth="yes"/>
			<point x="70" y="183"/>
			<point x="73" y="180"/>
			<point x="76" y="180" type="curve" smooth="yes"/>
			<point x="107" y="180" type="line" smooth="yes"/>
			<point x="110" y="180"/>
			<point x="113" y="183"/>
			<point x="113" y="186" type="curve" smooth="yes"/>
		</contour>
		<contour>
			<point x="60" y="31" type="line"/>
			<point x="59" y="11"/>
			<point x="71" y="-1"/>
			<point x="91" y="0" type="curve"/>
			<point x="92" y="0" type="line"/>
			<point x="112" y="-1"/>
			<point x="124" y="11"/>
			<point x="123" y="31" type="curve"/>
			<point x="123" y="32" type="line"/>
			<point x="124" y="52"/>
			<point x="112" y="64"/>
			<point x="92" y="63" type="curve"/>
			<point x="91" y="63" type="line"/>
			<point x="71" y="64"/>
			<point x="59" y="52"/>
			<point x="60" y="32" type="curve"/>
		</contour>
	</outline>
</glyph>
<glyph name="quotesingle" format="2">
	<advance width="182"/>
	<unicode hex="0027"/>
	<outline>
		<contour>
			<point x="99" y="761" type="line" smooth="yes"/>
			<point x="96" y="761"/>
			<point x="93" y="759"/>
			<point x="92" y="757" type="curve" smooth="yes"/>
			<point x="1" y="608" type="line" smooth="yes"/>
			<point x="-1" y="604"/>
			<point x="1" y="601"/>
			<point x="5" y="601" type="curve" smooth="yes"/>
			<point x="39" y="601" type="line" smooth="yes"/>
			<point x="42" y="601"/>
			<point x="45" y="603"/>
			<point x="47" y="605" type="curve" smooth="yes"/>
			<point x="141" y="754" type="line" smooth="yes"/>
			<point x="143" y="758"/>
			<point x="141" y="761"/>
			<point x="137" y="761" type="curve" smooth="yes"/>
		</contour>
	</outline>
</glyph>
<glyph name="parenleft" format="2">
	<advance width="279"/>
	<unicode hex="0028"/>
	<outline>
		<contour>
			<point x="60" y="298" type="curve" smooth="yes"/>
			<point x="60" y="133"/>
			<point x="101" y="-25"/>
			<point x="162" y="-101" type="curve" smooth="yes"/>
			<point x="164" y="-103"/>
			<point x="166" y="-104"/>
			<point x="169" y="-104" type="curve" smooth="yes"/>
			<point x="212" y="-104" type="line" smooth="yes"/>
			<point x="217" y="-104"/>
			<point x="218" y="-101"/>
			<point x="215" y="-97" type="curve" smooth="yes"/>
			<point x="151" y="-30"/>
			<point x="108" y="125"/>
			<point x="108" y="298" type="curve" smooth="yes"/>
			<point x="108" y="473"/>
			<point x="152" y="629"/>
			<point x="217" y="693" type="curve" smooth="yes"/>
			<point x="221" y="697"/>
			<point x="219" y="700"/>
			<point x="214" y="700" type="curve" smooth="yes"/>
			<point x="171" y="700" type="line" smooth="yes"/>
			<point x="168" y="700"/>
			<point x="166" y="699"/>
			<point x="164" y="697" type="curve" smooth="yes"/>
			<point x="102" y="623"/>
			<point x="60" y="464"/>
		</contour>
	</outline>
</glyph>
<glyph name="parenright" format="2">
	<advance width="279"/>
	<unicode hex="0029"/>
	<outline>
		<contour>
			<point x="219" y="298" type="curve" smooth="yes"/>
			<point x="219" y="464"/>
			<point x="177" y="623"/>
			<point x="115" y="697" type="curve" smooth="yes"/>
			<point x="113" y="699"/>
			<point x="111" y="700"/>
			<point x="108" y="700" type="curve" smooth="yes"/>
			<point x="65" y="700" type="line" smooth="yes"/>
			<point x="60" y="700"/>
			<point x="58" y="697"/>
			<point x="62" y="693" type="curve" smooth="yes"/>
			<point x="127" y="629"/>
			<point x="171" y="473"/>
			<point x="171" y="298" type="curve" smooth="yes"/>
			<point x="171" y="125"/>
			<point x="128" y="-30"/>
			<point x="64" y="-97" type="curve" smooth="yes"/>
			<point x="61" y="-101"/>
			<point x="62" y="-104"/>
			<point x="67" y="-104" type="curve" smooth="yes"/>
			<point x="110" y="-104" type="line" smooth="yes"/>
			<point x="113" y="-104"/>
			<point x="115" y="-103"/>
			<point x="117" y="-101" type="curve" smooth="yes"/>
			<point x="178" y="-25"/>
			<point x="219" y="133"/>
		</contour>
	</outline>
</glyph>
<glyph name="comma" format="1">
  <advance width="237"/>
  <unicode hex="002C"/>
  <outline>
    <contour>
      <point x="137" y="136"/>
      <point x="134" y="139"/>
      <point x="131" y="139" type="curve" smooth="yes"/>
      <point x="100" y="139" type="line" smooth="yes"/>
      <point x="97" y="139"/>
      <point x="94" y="136"/>
      <point x="94" y="133" type="curve" smooth="yes"/>
      <point x="94" y="52" type="line" smooth="yes"/>
      <point x="94" y="-20"/>
      <point x="71" y="-34"/>
      <point x="36" y="-34" type="curve" smooth="yes"/>
      <point x="31" y="-34"/>
      <point x="30" y="-35"/>
      <point x="30" y="-40" type="curve" smooth="yes"/>
      <point x="30" y="-68" type="line" smooth="yes"/>
      <point x="30" y="-73"/>
      <point x="31" y="-74"/>
      <point x="36" y="-74" type="curve" smooth="yes"/>
      <point x="107" y="-74"/>
      <point x="137" y="-32"/>
      <point x="137" y="42" type="curve" smooth="yes"/>
      <point x="137" y="133" type="line" smooth="yes"/>
    </contour>
  </outline>
</glyph>
<glyph name="hyphen" format="1">
  <advance width="302"/>
  <unicode hex="002D"/>
  <outline>
    <contour>
      <point x="40" y="281" type="line" smooth="yes"/>
      <point x="40" y="278"/>
      <point x="43" y="275"/>
      <point x="46" y="275" type="curve" smooth="yes"/>
      <point x="256" y="275" type="line" smooth="yes"/>
      <point x="259" y="275"/>
      <point x="262" y="278"/>
      <point x="262" y="281" type="curve" smooth="yes"/>
      <point x="262" y="309" type="line" smooth="yes"/>
      <point x="262" y="312"/>
      <point x="259" y="315"/>
      <point x="256" y="315" type="curve" smooth="yes"/>
      <point x="46" y="315" type="line" smooth="yes"/>
      <point x="43" y="315"/>
      <point x="40" y="312"/>
      <point x="40" y="309" type="curve" smooth="yes"/>
    </contour>
  </outline>
</glyph>
<glyph name="period" format="2">
	<advance width="228"/>
	<unicode hex="002E"/>
	<outline>
		<contour>
			<point x="80" y="35" type="curve"/>
			<point x="80" y="34" type="line"/>
			<point x="79" y="12"/>
			<point x="92" y="-1"/>
			<point x="114" y="0" type="curve"/>
			<point x="115" y="0" type="line"/>
			<point x="136" y="-1"/>
			<point x="149" y="12"/>
			<point x="148" y="34" type="curve"/>
			<point x="148" y="35" type="line"/>
			<point x="149" y="56"/>
			<point x="136" y="69"/>
			<point x="115" y="68" type="curve"/>
			<point x="114" y="68" type="line"/>
			<point x="92" y="69"/>
			<point x="79" y="56"/>
		</contour>
	</outline>
</glyph>
<glyph name="slash" format="2">
	<advance width="552"/>
	<unicode hex="002F"/>
	<outline>
		<contour>
			<point x="446" y="696" type="curve" smooth="yes"/>
			<point x="61" y="-93" type="line" smooth="yes"/>
			<point x="59" y="-97"/>
			<point x="60" y="-100"/>
			<point x="65" y="-100" type="curve" smooth="yes"/>
			<point x="98" y="-100" type="line" smooth="yes"/>
			<point x="101" y="-100"/>
			<point x="105" y="-98"/>
			<point x="106" y="-96" type="curve" smooth="yes"/>
			<point x="491" y="693" type="line" smooth="yes"/>
			<point x="493" y="697"/>
			<point x="492" y="700"/>
			<point x="487" y="700" type="curve" smooth="yes"/>
			<point x="454" y="700" type="line" smooth="yes"/>
			<point x="451" y="700"/>
			<point x="447" y="698"/>
		</contour>
	</outline>
</glyph>
<glyph name="zero" format="1">
  <advance width="692"/>
  <unicode hex="0030"/>
  <outline>
    <contour>
      <point x="528" y="-6"/>
      <point x="612" y="108"/>
      <point x="612" y="358" type="curve" smooth="yes"/>
      <point x="612" y="597"/>
      <point x="528" y="706"/>
      <point x="346" y="706" type="curve" smooth="yes"/>
      <point x="164" y="706"/>
      <point x="80" y="597"/>
      <point x="80" y="358" type="curve" smooth="yes"/>
      <point x="80" y="108"/>
      <point x="164" y="-6"/>
      <point x="346" y="-6" type="curve" smooth="yes"/>
    </contour>
    <contour>
      <point x="197" y="36"/>
      <point x="128" y="137"/>
      <point x="128" y="358" type="curve" smooth="yes"/>
      <point x="128" y="568"/>
      <point x="197" y="664"/>
      <point x="346" y="664" type="curve" smooth="yes"/>
      <point x="495" y="664"/>
      <point x="564" y="568"/>
      <point x="564" y="358" type="curve" smooth="yes"/>
      <point x="564" y="137"/>
      <point x="495" y="36"/>
      <point x="346" y="36" type="curve" smooth="yes"/>
    </contour>
    <contour>
      <point x="183" y="65" type="line"/>
      <point x="539" y="610" type="line"/>
      <point x="508" y="635" type="line"/>
      <point x="154" y="93" type="line"/>
    </contour>
  </outline>
</glyph>
<glyph name="four" format="1">
  <advance width="638"/>
  <unicode hex="0034"/>
  <outline>
    <contour>
      <point x="558" y="216" type="line" smooth="yes"/>
      <point x="558" y="220"/>
      <point x="556" y="222"/>
      <point x="552" y="222" type="curve" smooth="yes"/>
      <point x="140" y="222" type="line" smooth="yes"/>
      <point x="135" y="222"/>
      <point x="134" y="225"/>
      <point x="137" y="229" type="curve" smooth="yes"/>
      <point x="438" y="653" type="line"/>
      <point x="438" y="700" type="line"/>
      <point x="422" y="700" type="line" smooth="yes"/>
      <point x="419" y="700"/>
      <point x="416" y="698"/>
      <point x="415" y="696" type="curve" smooth="yes"/>
      <point x="92" y="242" type="line"/>
      <point x="87" y="231"/>
      <point x="80" y="216"/>
      <point x="80" y="205" type="curve" smooth="yes"/>
      <point x="80" y="186" type="line" smooth="yes"/>
      <point x="80" y="182"/>
      <point x="82" y="180"/>
      <point x="86" y="180" type="curve" smooth="yes"/>
      <point x="552" y="180" type="line" smooth="yes"/>
      <point x="556" y="180"/>
      <point x="558" y="182"/>
      <point x="558" y="186" type="curve" smooth="yes"/>
    </contour>
    <contour>
      <point x="461" y="694" type="line" smooth="yes"/>
      <point x="461" y="697"/>
      <point x="458" y="700"/>
      <point x="455" y="700" type="curve" smooth="yes"/>
      <point x="422" y="700" type="line" smooth="yes"/>
      <point x="419" y="700"/>
      <point x="416" y="697"/>
      <point x="416" y="694" type="curve" smooth="yes"/>
      <point x="416" y="6" type="line" smooth="yes"/>
      <point x="416" y="3"/>
      <point x="419" y="0"/>
      <point x="422" y="0" type="curve" smooth="yes"/>
      <point x="455" y="0" type="line" smooth="yes"/>
      <point x="458" y="0"/>
      <point x="461" y="3"/>
      <point x="461" y="6" type="curve" smooth="yes"/>
    </contour>
  </outline>
</glyph>
<glyph name="six" format="1">
  <advance width="629"/>
  <unicode hex="0036"/>
  <outline>
    <contour>
      <point x="80" y="84"/>
      <point x="173" y="-6"/>
      <point x="313" y="-6" type="curve" smooth="yes"/>
      <point x="455" y="-6"/>
      <point x="549" y="84"/>
      <point x="549" y="219" type="curve" smooth="yes"/>
      <point x="549" y="354"/>
      <point x="455" y="444"/>
      <point x="313" y="444" type="curve" smooth="yes"/>
      <point x="237" y="444"/>
      <point x="162" y="393"/>
      <point x="125" y="317" type="curve"/>
      <point x="125" y="451" type="line" smooth="yes"/>
      <point x="125" y="588"/>
      <point x="192" y="664"/>
      <point x="313" y="664" type="curve" smooth="yes"/>
      <point x="416" y="664"/>
      <point x="484" y="617"/>
      <point x="484" y="547" type="curve" smooth="yes"/>
      <point x="484" y="543"/>
      <point x="486" y="541"/>
      <point x="490" y="541" type="curve" smooth="yes"/>
      <point x="523" y="541" type="line" smooth="yes"/>
      <point x="527" y="541"/>
      <point x="529" y="543"/>
      <point x="529" y="547" type="curve" smooth="yes"/>
      <point x="529" y="642"/>
      <point x="443" y="706"/>
      <point x="313" y="706" type="curve" smooth="yes"/>
      <point x="163" y="706"/>
      <point x="80" y="615"/>
      <point x="80" y="451" type="curve" smooth="yes"/>
      <point x="80" y="219" type="line" smooth="yes"/>
    </contour>
    <contour>
      <point x="125" y="329"/>
      <point x="200" y="402"/>
      <point x="313" y="402" type="curve" smooth="yes"/>
      <point x="426" y="402"/>
      <point x="501" y="329"/>
      <point x="501" y="219" type="curve" smooth="yes"/>
      <point x="501" y="109"/>
      <point x="426" y="36"/>
      <point x="313" y="36" type="curve" smooth="yes"/>
      <point x="200" y="36"/>
      <point x="125" y="109"/>
      <point x="125" y="219" type="curve" smooth="yes"/>
    </contour>
  </outline>
</glyph>
<glyph name="seven" format="2">
	<advance width="588"/>
	<unicode hex="0037"/>
	<outline>
		<contour>
			<point x="60" y="694" type="curve" smooth="yes"/>
			<point x="60" y="664" type="line" smooth="yes"/>
			<point x="60" y="660"/>
			<point x="62" y="658"/>
			<point x="66" y="658" type="curve" smooth="yes"/>
			<point x="471" y="658" type="line" smooth="yes"/>
			<point x="476" y="658"/>
			<point x="476" y="655"/>
			<point x="474" y="651" type="curve" smooth="yes"/>
			<point x="161" y="7" type="line" smooth="yes"/>
			<point x="159" y="2"/>
			<point x="162" y="0"/>
			<point x="166" y="0" type="curve" smooth="yes"/>
			<point x="201" y="0" type="line" smooth="yes"/>
			<point x="204" y="0"/>
			<point x="207" y="1"/>
			<point x="208" y="4" type="curve" smooth="yes"/>
			<point x="516" y="638" type="line"/>
			<point x="521" y="649"/>
			<point x="528" y="664"/>
			<point x="528" y="675" type="curve" smooth="yes"/>
			<point x="528" y="694" type="line" smooth="yes"/>
			<point x="528" y="698"/>
			<point x="526" y="700"/>
			<point x="522" y="700" type="curve" smooth="yes"/>
			<point x="66" y="700" type="line" smooth="yes"/>
			<point x="62" y="700"/>
			<point x="60" y="698"/>
		</contour>
	</outline>
</glyph>
<glyph name="eight" format="2">
	<advance width="632"/>
	<unicode hex="0038"/>
	<outline>
		<contour>
			<point x="316" y="362" type="curve" smooth="yes"/>
			<point x="440" y="362"/>
			<point x="522" y="431"/>
			<point x="522" y="534" type="curve" smooth="yes"/>
			<point x="522" y="637"/>
			<point x="440" y="706"/>
			<point x="316" y="706" type="curve" smooth="yes"/>
			<point x="192" y="706"/>
			<point x="110" y="637"/>
			<point x="110" y="534" type="curve" smooth="yes"/>
			<point x="110" y="431"/>
			<point x="192" y="362"/>
		</contour>
		<contour>
			<point x="316" y="404" type="curve" smooth="yes"/>
			<point x="221" y="404"/>
			<point x="158" y="456"/>
			<point x="158" y="534" type="curve" smooth="yes"/>
			<point x="158" y="612"/>
			<point x="221" y="664"/>
			<point x="316" y="664" type="curve" smooth="yes"/>
			<point x="411" y="664"/>
			<point x="474" y="612"/>
			<point x="474" y="534" type="curve" smooth="yes"/>
			<point x="474" y="456"/>
			<point x="411" y="404"/>
		</contour>
		<contour>
			<point x="316" y="-6" type="curve" smooth="yes"/>
			<point x="458" y="-6"/>
			<point x="552" y="72"/>
			<point x="552" y="189" type="curve" smooth="yes"/>
			<point x="552" y="318"/>
			<point x="458" y="404"/>
			<point x="316" y="404" type="curve" smooth="yes"/>
			<point x="174" y="404"/>
			<point x="80" y="318"/>
			<point x="80" y="189" type="curve" smooth="yes"/>
			<point x="80" y="72"/>
			<point x="174" y="-6"/>
		</contour>
		<contour>
			<point x="316" y="36" type="curve" smooth="yes"/>
			<point x="203" y="36"/>
			<point x="128" y="97"/>
			<point x="128" y="189" type="curve" smooth="yes"/>
			<point x="128" y="293"/>
			<point x="203" y="362"/>
			<point x="316" y="362" type="curve" smooth="yes"/>
			<point x="429" y="362"/>
			<point x="504" y="293"/>
			<point x="504" y="189" type="curve" smooth="yes"/>
			<point x="504" y="97"/>
			<point x="429" y="36"/>
		</contour>
	</outline>
</glyph>
<glyph name="nine" format="2">
	<advance width="629"/>
	<unicode hex="0039"/>
	<outline>
		<contour>
			<point x="80" y="481" type="curve" smooth="yes"/>
			<point x="80" y="346"/>
			<point x="174" y="256"/>
			<point x="316" y="256" type="curve" smooth="yes"/>
			<point x="392" y="256"/>
			<point x="467" y="297"/>
			<point x="504" y="373" type="curve"/>
			<point x="504" y="249" type="line" smooth="yes"/>
			<point x="504" y="112"/>
			<point x="437" y="36"/>
			<point x="316" y="36" type="curve" smooth="yes"/>
			<point x="213" y="36"/>
			<point x="145" y="83"/>
			<point x="145" y="153" type="curve" smooth="yes"/>
			<point x="145" y="157"/>
			<point x="143" y="159"/>
			<point x="139" y="159" type="curve" smooth="yes"/>
			<point x="106" y="159" type="line" smooth="yes"/>
			<point x="102" y="159"/>
			<point x="100" y="157"/>
			<point x="100" y="153" type="curve" smooth="yes"/>
			<point x="100" y="58"/>
			<point x="186" y="-6"/>
			<point x="316" y="-6" type="curve" smooth="yes"/>
			<point x="466" y="-6"/>
			<point x="549" y="85"/>
			<point x="549" y="249" type="curve" smooth="yes"/>
			<point x="549" y="481" type="line" smooth="yes"/>
			<point x="549" y="616"/>
			<point x="456" y="706"/>
			<point x="316" y="706" type="curve" smooth="yes"/>
			<point x="174" y="706"/>
			<point x="80" y="616"/>
		</contour>
		<contour>
			<point x="128" y="481" type="curve" smooth="yes"/>
			<point x="128" y="591"/>
			<point x="203" y="664"/>
			<point x="316" y="664" type="curve" smooth="yes"/>
			<point x="429" y="664"/>
			<point x="504" y="591"/>
			<point x="504" y="481" type="curve" smooth="yes"/>
			<point x="504" y="371"/>
			<point x="429" y="298"/>
			<point x="316" y="298" type="curve" smooth="yes"/>
			<point x="203" y="298"/>
			<point x="128" y="371"/>
		</contour>
	</outline>
</glyph>
<glyph name="colon" format="2">
	<advance width="263"/>
	<unicode hex="003A"/>
	<outline>
		<contour>
			<point x="100" y="112" type="curve"/>
			<point x="100" y="111" type="line"/>
			<point x="99" y="91"/>
			<point x="111" y="79"/>
			<point x="131" y="80" type="curve"/>
			<point x="132" y="80" type="line"/>
			<point x="152" y="79"/>
			<point x="164" y="91"/>
			<point x="163" y="111" type="curve"/>
			<point x="163" y="112" type="line"/>
			<point x="164" y="132"/>
			<point x="152" y="144"/>
			<point x="132" y="143" type="curve"/>
			<point x="131" y="143" type="line"/>
			<point x="111" y="144"/>
			<point x="99" y="132"/>
		</contour>
		<contour>
			<point x="100" y="389" type="curve"/>
			<point x="100" y="388" type="line"/>
			<point x="99" y="368"/>
			<point x="111" y="356"/>
			<point x="131" y="357" type="curve"/>
			<point x="132" y="357" type="line"/>
			<point x="152" y="356"/>
			<point x="164" y="368"/>
			<point x="163" y="388" type="curve"/>
			<point x="163" y="389" type="line"/>
			<point x="164" y="409"/>
			<point x="152" y="421"/>
			<point x="132" y="420" type="curve"/>
			<point x="131" y="420" type="line"/>
			<point x="111" y="421"/>
			<point x="99" y="409"/>
		</contour>
	</outline>
</glyph>
<glyph name="B" format="2">
	<advance width="584"/>
	<unicode hex="0042"/>
	<outline>
		<contour>
			<point x="80" y="6" type="line" smooth="yes"/>
			<point x="80" y="3"/>
			<point x="83" y="0"/>
			<point x="86" y="0" type="curve" smooth="yes"/>
			<point x="321" y="0" type="line" smooth="yes"/>
			<point x="455" y="0"/>
			<point x="544" y="75"/>
			<point x="544" y="188" type="curve" smooth="yes"/>
			<point x="544" y="277"/>
			<point x="477" y="343"/>
			<point x="397" y="371" type="curve"/>
			<point x="397" y="374" type="line"/>
			<point x="450" y="404"/>
			<point x="494" y="456"/>
			<point x="494" y="522" type="curve" smooth="yes"/>
			<point x="494" y="629"/>
			<point x="413" y="700"/>
			<point x="291" y="700" type="curve" smooth="yes"/>
			<point x="86" y="700" type="line" smooth="yes"/>
			<point x="83" y="700"/>
			<point x="80" y="697"/>
			<point x="80" y="694" type="curve" smooth="yes"/>
		</contour>
		<contour>
			<point x="125" y="48" type="curve" smooth="yes"/>
			<point x="125" y="338" type="line" smooth="yes"/>
			<point x="125" y="342"/>
			<point x="127" y="344"/>
			<point x="131" y="344" type="curve" smooth="yes"/>
			<point x="321" y="344" type="line" smooth="yes"/>
			<point x="426" y="344"/>
			<point x="496" y="282"/>
			<point x="496" y="188" type="curve" smooth="yes"/>
			<point x="496" y="100"/>
			<point x="426" y="42"/>
			<point x="321" y="42" type="curve" smooth="yes"/>
			<point x="131" y="42" type="line" smooth="yes"/>
			<point x="127" y="42"/>
			<point x="125" y="44"/>
		</contour>
		<contour>
			<point x="125" y="392" type="curve" smooth="yes"/>
			<point x="125" y="652" type="line" smooth="yes"/>
			<point x="125" y="656"/>
			<point x="128" y="658"/>
			<point x="131" y="658" type="curve" smooth="yes"/>
			<point x="291" y="658" type="line" smooth="yes"/>
			<point x="384" y="658"/>
			<point x="446" y="604"/>
			<point x="446" y="522" type="curve" smooth="yes"/>
			<point x="446" y="440"/>
			<point x="384" y="386"/>
			<point x="291" y="386" type="curve" smooth="yes"/>
			<point x="131" y="386" type="line" smooth="yes"/>
			<point x="127" y="386"/>
			<point x="125" y="388"/>
		</contour>
	</outline>
</glyph>
<glyph name="D" format="1">
  <advance width="652"/>
  <unicode hex="0044"/>
  <outline>
    <contour>
      <point x="105" y="694" type="line" smooth="yes"/>
      <point x="105" y="697"/>
      <point x="102" y="700"/>
      <point x="99" y="700" type="curve" smooth="yes"/>
      <point x="66" y="700" type="line" smooth="yes"/>
      <point x="63" y="700"/>
      <point x="60" y="697"/>
      <point x="60" y="694" type="curve" smooth="yes"/>
      <point x="60" y="6" type="line" smooth="yes"/>
      <point x="60" y="3"/>
      <point x="63" y="0"/>
      <point x="66" y="0" type="curve" smooth="yes"/>
      <point x="99" y="0" type="line" smooth="yes"/>
      <point x="102" y="0"/>
      <point x="105" y="3"/>
      <point x="105" y="6" type="curve" smooth="yes"/>
    </contour>
    <contour>
      <point x="470" y="0"/>
      <point x="592" y="140"/>
      <point x="592" y="358" type="curve" smooth="yes"/>
      <point x="592" y="567"/>
      <point x="470" y="700"/>
      <point x="286" y="700" type="curve"/>
      <point x="84" y="700" type="line"/>
      <point x="84" y="658" type="line"/>
      <point x="286" y="658" type="line"/>
      <point x="441" y="658"/>
      <point x="544" y="542"/>
      <point x="544" y="358" type="curve" smooth="yes"/>
      <point x="544" y="165"/>
      <point x="441" y="42"/>
      <point x="286" y="42" type="curve"/>
      <point x="84" y="42" type="line"/>
      <point x="84" y="0" type="line"/>
      <point x="286" y="0" type="line"/>
    </contour>
  </outline>
</glyph>
<glyph name="E" format="2">
	<advance width="573"/>
	<unicode hex="0045"/>
	<outline>
		<contour>
			<point x="105" y="6" type="curve" smooth="yes"/>
			<point x="105" y="694" type="line" smooth="yes"/>
			<point x="105" y="697"/>
			<point x="102" y="700"/>
			<point x="99" y="700" type="curve" smooth="yes"/>
			<point x="66" y="700" type="line" smooth="yes"/>
			<point x="63" y="700"/>
			<point x="60" y="697"/>
			<point x="60" y="694" type="curve" smooth="yes"/>
			<point x="60" y="6" type="line" smooth="yes"/>
			<point x="60" y="3"/>
			<point x="63" y="0"/>
			<point x="66" y="0" type="curve" smooth="yes"/>
			<point x="99" y="0" type="line" smooth="yes"/>
			<point x="102" y="0"/>
			<point x="105" y="3"/>
		</contour>
		<contour>
			<point x="79" y="382" type="line" smooth="yes"/>
			<point x="77" y="382"/>
			<point x="74" y="379"/>
			<point x="74" y="376" type="curve" smooth="yes"/>
			<point x="73" y="346" type="line" smooth="yes"/>
			<point x="73" y="343"/>
			<point x="76" y="340"/>
			<point x="79" y="340" type="curve" smooth="yes"/>
			<point x="467" y="339" type="line" smooth="yes"/>
			<point x="469" y="339"/>
			<point x="473" y="342"/>
			<point x="473" y="346" type="curve" smooth="yes"/>
			<point x="472" y="375" type="line" smooth="yes"/>
			<point x="472" y="378"/>
			<point x="470" y="381"/>
			<point x="467" y="381" type="curve" smooth="yes"/>
		</contour>
		<contour>
			<point x="79" y="43" type="line" smooth="yes"/>
			<point x="77" y="43"/>
			<point x="74" y="40"/>
			<point x="74" y="37" type="curve" smooth="yes"/>
			<point x="73" y="7" type="line" smooth="yes"/>
			<point x="73" y="4"/>
			<point x="76" y="1"/>
			<point x="79" y="1" type="curve" smooth="yes"/>
			<point x="507" y="0" type="line" smooth="yes"/>
			<point x="509" y="0"/>
			<point x="513" y="3"/>
			<point x="513" y="7" type="curve" smooth="yes"/>
			<point x="512" y="36" type="line" smooth="yes"/>
			<point x="512" y="39"/>
			<point x="510" y="42"/>
			<point x="507" y="42" type="curve" smooth="yes"/>
		</contour>
		<contour>
			<point x="79" y="700" type="line" smooth="yes"/>
			<point x="77" y="700"/>
			<point x="74" y="697"/>
			<point x="74" y="694" type="curve" smooth="yes"/>
			<point x="73" y="664" type="line" smooth="yes"/>
			<point x="73" y="661"/>
			<point x="76" y="658"/>
			<point x="79" y="658" type="curve" smooth="yes"/>
			<point x="507" y="657" type="line" smooth="yes"/>
			<point x="509" y="657"/>
			<point x="513" y="660"/>
			<point x="513" y="664" type="curve" smooth="yes"/>
			<point x="512" y="693" type="line" smooth="yes"/>
			<point x="512" y="696"/>
			<point x="510" y="699"/>
			<point x="507" y="699" type="curve" smooth="yes"/>
		</contour>
	</outline>
</glyph>
<glyph name="G" format="1">
  <advance width="732"/>
  <unicode hex="0047"/>
  <outline>
    <contour>
      <point x="544" y="-6"/>
      <point x="662" y="114"/>
      <point x="672" y="295" type="curve"/>
      <point x="624" y="295" type="line"/>
      <point x="614" y="140"/>
      <point x="515" y="36"/>
      <point x="376" y="36" type="curve" smooth="yes"/>
      <point x="215" y="36"/>
      <point x="108" y="165"/>
      <point x="108" y="358" type="curve" smooth="yes"/>
      <point x="108" y="542"/>
      <point x="215" y="664"/>
      <point x="376" y="664" type="curve" smooth="yes"/>
      <point x="496" y="664"/>
      <point x="580" y="597"/>
      <point x="610" y="476" type="curve" smooth="yes"/>
      <point x="611" y="472"/>
      <point x="613" y="470"/>
      <point x="616" y="470" type="curve" smooth="yes"/>
      <point x="649" y="470" type="line" smooth="yes"/>
      <point x="654" y="470"/>
      <point x="656" y="472"/>
      <point x="655" y="476" type="curve" smooth="yes"/>
      <point x="617" y="624"/>
      <point x="518" y="706"/>
      <point x="376" y="706" type="curve" smooth="yes"/>
      <point x="186" y="706"/>
      <point x="60" y="567"/>
      <point x="60" y="358" type="curve" smooth="yes"/>
      <point x="60" y="140"/>
      <point x="186" y="-6"/>
      <point x="376" y="-6" type="curve" smooth="yes"/>
    </contour>
    <contour>
      <point x="406" y="338"/>
      <point x="404" y="336"/>
      <point x="404" y="332" type="curve" smooth="yes"/>
      <point x="403" y="302" type="line" smooth="yes"/>
      <point x="403" y="298"/>
      <point x="405" y="296"/>
      <point x="409" y="296" type="curve" smooth="yes"/>
      <point x="672" y="295" type="line"/>
      <point x="672" y="331" type="line" smooth="yes"/>
      <point x="672" y="335"/>
      <point x="670" y="337"/>
      <point x="667" y="337" type="curve" smooth="yes"/>
      <point x="409" y="338" type="line" smooth="yes"/>
    </contour>
  </outline>
</glyph>
<glyph name="H" format="2">
	<advance width="655"/>
	<unicode hex="0048"/>
	<outline>
		<contour>
			<point x="125" y="6" type="curve" smooth="yes"/>
			<point x="125" y="694" type="line" smooth="yes"/>
			<point x="125" y="697"/>
			<point x="122" y="700"/>
			<point x="119" y="700" type="curve" smooth="yes"/>
			<point x="86" y="700" type="line" smooth="yes"/>
			<point x="83" y="700"/>
			<point x="80" y="697"/>
			<point x="80" y="694" type="curve" smooth="yes"/>
			<point x="80" y="6" type="line" smooth="yes"/>
			<point x="80" y="3"/>
			<point x="83" y="0"/>
			<point x="86" y="0" type="curve" smooth="yes"/>
			<point x="119" y="0" type="line" smooth="yes"/>
			<point x="122" y="0"/>
			<point x="125" y="3"/>
		</contour>
		<contour>
			<point x="575" y="6" type="curve" smooth="yes"/>
			<point x="575" y="694" type="line" smooth="yes"/>
			<point x="575" y="697"/>
			<point x="572" y="700"/>
			<point x="569" y="700" type="curve" smooth="yes"/>
			<point x="536" y="700" type="line" smooth="yes"/>
			<point x="533" y="700"/>
			<point x="530" y="697"/>
			<point x="530" y="694" type="curve" smooth="yes"/>
			<point x="530" y="6" type="line" smooth="yes"/>
			<point x="530" y="3"/>
			<point x="533" y="0"/>
			<point x="536" y="0" type="curve" smooth="yes"/>
			<point x="569" y="0" type="line" smooth="yes"/>
			<point x="572" y="0"/>
			<point x="575" y="3"/>
		</contour>
		<contour>
			<point x="99" y="382" type="line" smooth="yes"/>
			<point x="97" y="382"/>
			<point x="94" y="379"/>
			<point x="94" y="376" type="curve" smooth="yes"/>
			<point x="93" y="346" type="line" smooth="yes"/>
			<point x="93" y="343"/>
			<point x="96" y="340"/>
			<point x="99" y="340" type="curve" smooth="yes"/>
			<point x="547" y="339" type="line" smooth="yes"/>
			<point x="549" y="339"/>
			<point x="553" y="342"/>
			<point x="553" y="346" type="curve" smooth="yes"/>
			<point x="552" y="375" type="line" smooth="yes"/>
			<point x="552" y="378"/>
			<point x="550" y="381"/>
			<point x="547" y="381" type="curve" smooth="yes"/>
		</contour>
	</outline>
</glyph>
<glyph name="I" format="2">
	<advance width="205"/>
	<unicode hex="0049"/>
	<outline>
		<contour>
			<point x="125" y="6" type="curve" smooth="yes"/>
			<point x="125" y="694" type="line" smooth="yes"/>
			<point x="125" y="697"/>
			<point x="122" y="700"/>
			<point x="119" y="700" type="curve" smooth="yes"/>
			<point x="86" y="700" type="line" smooth="yes"/>
			<point x="83" y="700"/>
			<point x="80" y="697"/>
			<point x="80" y="694" type="curve" smooth="yes"/>
			<point x="80" y="6" type="line" smooth="yes"/>
			<point x="80" y="3"/>
			<point x="83" y="0"/>
			<point x="86" y="0" type="curve" smooth="yes"/>
			<point x="119" y="0" type="line" smooth="yes"/>
			<point x="122" y="0"/>
			<point x="125" y="3"/>
		</contour>
	</outline>
</glyph>
<glyph name="J" format="1">
  <advance width="400"/>
  <unicode hex="004A"/>
  <outline>
    <contour>
      <point x="275" y="-6"/>
      <point x="350" y="72"/>
      <point x="350" y="189" type="curve" smooth="yes"/>
      <point x="350" y="694" type="line" smooth="yes"/>
      <point x="350" y="697"/>
      <point x="347" y="700"/>
      <point x="344" y="700" type="curve" smooth="yes"/>
      <point x="311" y="700" type="line" smooth="yes"/>
      <point x="308" y="700"/>
      <point x="305" y="697"/>
      <point x="305" y="694" type="curve" smooth="yes"/>
      <point x="305" y="189" type="line" smooth="yes"/>
      <point x="305" y="97"/>
      <point x="248" y="36"/>
      <point x="162" y="36" type="curve" smooth="yes"/>
      <point x="134" y="36"/>
      <point x="103" y="46"/>
      <point x="86" y="60" type="curve" smooth="yes"/>
      <point x="83" y="63"/>
      <point x="81" y="64"/>
      <point x="78" y="61" type="curve" smooth="yes"/>
      <point x="52" y="40" type="line" smooth="yes"/>
      <point x="49" y="37"/>
      <point x="49" y="34"/>
      <point x="52" y="32" type="curve" smooth="yes"/>
      <point x="77" y="9"/>
      <point x="121" y="-6"/>
      <point x="162" y="-6" type="curve" smooth="yes"/>
    </contour>
  </outline>
</glyph>
<glyph name="K" format="1">
  <advance width="600"/>
  <unicode hex="004B"/>
  <outline>
    <contour>
      <point x="145" y="694" type="line" smooth="yes"/>
      <point x="145" y="697"/>
      <point x="142" y="700"/>
      <point x="139" y="700" type="curve" smooth="yes"/>
      <point x="106" y="700" type="line" smooth="yes"/>
      <point x="103" y="700"/>
      <point x="100" y="697"/>
      <point x="100" y="694" type="curve" smooth="yes"/>
      <point x="100" y="6" type="line" smooth="yes"/>
      <point x="100" y="3"/>
      <point x="103" y="0"/>
      <point x="106" y="0" type="curve" smooth="yes"/>
      <point x="139" y="0" type="line" smooth="yes"/>
      <point x="142" y="0"/>
      <point x="145" y="3"/>
      <point x="145" y="6" type="curve" smooth="yes"/>
    </contour>
    <contour>
      <point x="156" y="339" type="line" smooth="yes"/>
      <point x="151" y="339"/>
      <point x="152" y="332"/>
      <point x="156" y="328" type="curve" smooth="yes"/>
      <point x="461" y="3" type="line" smooth="yes"/>
      <point x="464" y="0"/>
      <point x="465" y="0"/>
      <point x="468" y="0" type="curve" smooth="yes"/>
      <point x="512" y="0" type="line" smooth="yes"/>
      <point x="517" y="0"/>
      <point x="520" y="3"/>
      <point x="516" y="7" type="curve" smooth="yes"/>
      <point x="207" y="336" type="line" smooth="yes"/>
      <point x="204" y="339"/>
      <point x="203" y="339"/>
      <point x="200" y="339" type="curve" smooth="yes"/>
    </contour>
    <contour>
      <point x="156" y="328" type="line"/>
      <point x="507" y="693" type="line"/>
      <point x="510" y="697"/>
      <point x="508" y="700"/>
      <point x="503" y="700" type="curve" smooth="yes"/>
      <point x="459" y="700" type="line" smooth="yes"/>
      <point x="456" y="700"/>
      <point x="454" y="700"/>
      <point x="452" y="697" type="curve"/>
      <point x="130" y="356" type="line"/>
    </contour>
  </outline>
</glyph>
<glyph name="L" format="2">
	<advance width="532"/>
	<unicode hex="004C"/>
	<outline>
		<contour>
			<point x="105" y="6" type="curve" smooth="yes"/>
			<point x="105" y="694" type="line" smooth="yes"/>
			<point x="105" y="697"/>
			<point x="102" y="700"/>
			<point x="99" y="700" type="curve" smooth="yes"/>
			<point x="66" y="700" type="line" smooth="yes"/>
			<point x="63" y="700"/>
			<point x="60" y="697"/>
			<point x="60" y="694" type="curve" smooth="yes"/>
			<point x="60" y="6" type="line" smooth="yes"/>
			<point x="60" y="3"/>
			<point x="63" y="0"/>
			<point x="66" y="0" type="curve" smooth="yes"/>
			<point x="99" y="0" type="line" smooth="yes"/>
			<point x="102" y="0"/>
			<point x="105" y="3"/>
		</contour>
		<contour>
			<point x="86" y="42" type="line" smooth="yes"/>
			<point x="83" y="42"/>
			<point x="80" y="39"/>
			<point x="80" y="36" type="curve" smooth="yes"/>
			<point x="80" y="6" type="line" smooth="yes"/>
			<point x="80" y="3"/>
			<point x="83" y="0"/>
			<point x="86" y="0" type="curve" smooth="yes"/>
			<point x="466" y="0" type="line" smooth="yes"/>
			<point x="469" y="0"/>
			<point x="472" y="3"/>
			<point x="472" y="6" type="curve" smooth="yes"/>
			<point x="472" y="36" type="line" smooth="yes"/>
			<point x="472" y="39"/>
			<point x="469" y="42"/>
			<point x="466" y="42" type="curve" smooth="yes"/>
		</contour>
	</outline>
</glyph>
<glyph name="M" format="1">
  <advance width="744"/>
  <unicode hex="004D"/>
  <outline>
    <contour>
      <point x="105" y="700" type="line"/>
      <point x="66" y="700" type="line" smooth="yes"/>
      <point x="63" y="700"/>
      <point x="60" y="697"/>
      <point x="60" y="694" type="curve" smooth="yes"/>
      <point x="60" y="6" type="line" smooth="yes"/>
      <point x="60" y="3"/>
      <point x="63" y="0"/>
      <point x="66" y="0" type="curve" smooth="yes"/>
      <point x="99" y="0" type="line" smooth="yes"/>
      <point x="102" y="0"/>
      <point x="105" y="3"/>
      <point x="105" y="6" type="curve" smooth="yes"/>
    </contour>
    <contour>
      <point x="105" y="700" type="line"/>
      <point x="105" y="654" type="line"/>
      <point x="344" y="4" type="line" smooth="yes"/>
      <point x="345" y="1"/>
      <point x="348" y="0"/>
      <point x="351" y="0" type="curve" smooth="yes"/>
      <point x="372" y="0" type="line"/>
      <point x="372" y="46" type="line"/>
      <point x="134" y="696" type="line" smooth="yes"/>
      <point x="133" y="699"/>
      <point x="130" y="700"/>
      <point x="127" y="700" type="curve" smooth="yes"/>
    </contour>
    <contour>
      <point x="614" y="700"/>
      <point x="611" y="699"/>
      <point x="610" y="696" type="curve" smooth="yes"/>
      <point x="372" y="46" type="line"/>
      <point x="372" y="0" type="line"/>
      <point x="393" y="0" type="line" smooth="yes"/>
      <point x="396" y="0"/>
      <point x="399" y="1"/>
      <point x="400" y="4" type="curve" smooth="yes"/>
      <point x="639" y="654" type="line"/>
      <point x="639" y="700" type="line"/>
      <point x="617" y="700" type="line" smooth="yes"/>
    </contour>
    <contour>
      <point x="639" y="3"/>
      <point x="642" y="0"/>
      <point x="645" y="0" type="curve" smooth="yes"/>
      <point x="678" y="0" type="line" smooth="yes"/>
      <point x="681" y="0"/>
      <point x="684" y="3"/>
      <point x="684" y="6" type="curve" smooth="yes"/>
      <point x="684" y="694" type="line" smooth="yes"/>
      <point x="684" y="697"/>
      <point x="681" y="700"/>
      <point x="678" y="700" type="curve" smooth="yes"/>
      <point x="639" y="700" type="line"/>
      <point x="639" y="6" type="line" smooth="yes"/>
    </contour>
  </outline>
</glyph>
<glyph name="N" format="2">
	<advance width="655"/>
	<unicode hex="004E"/>
	<outline>
		<contour>
			<point x="125" y="6" type="curve" smooth="yes"/>
			<point x="125" y="700" type="line"/>
			<point x="86" y="700" type="line" smooth="yes"/>
			<point x="83" y="700"/>
			<point x="80" y="697"/>
			<point x="80" y="694" type="curve" smooth="yes"/>
			<point x="80" y="6" type="line" smooth="yes"/>
			<point x="80" y="3"/>
			<point x="83" y="0"/>
			<point x="86" y="0" type="curve" smooth="yes"/>
			<point x="119" y="0" type="line" smooth="yes"/>
			<point x="122" y="0"/>
			<point x="125" y="3"/>
		</contour>
		<contour>
			<point x="575" y="6" type="curve" smooth="yes"/>
			<point x="575" y="694" type="line" smooth="yes"/>
			<point x="575" y="697"/>
			<point x="572" y="700"/>
			<point x="569" y="700" type="curve" smooth="yes"/>
			<point x="536" y="700" type="line" smooth="yes"/>
			<point x="533" y="700"/>
			<point x="530" y="697"/>
			<point x="530" y="694" type="curve" smooth="yes"/>
			<point x="530" y="0" type="line"/>
			<point x="569" y="0" type="line" smooth="yes"/>
			<point x="572" y="0"/>
			<point x="575" y="3"/>
		</contour>
		<contour>
			<point x="147" y="700" type="curve" smooth="yes"/>
			<point x="125" y="700" type="line"/>
			<point x="125" y="654" type="line"/>
			<point x="502" y="4" type="line" smooth="yes"/>
			<point x="503" y="1"/>
			<point x="506" y="0"/>
			<point x="509" y="0" type="curve" smooth="yes"/>
			<point x="530" y="0" type="line"/>
			<point x="530" y="46" type="line"/>
			<point x="154" y="696" type="line" smooth="yes"/>
			<point x="153" y="699"/>
			<point x="150" y="700"/>
		</contour>
	</outline>
</glyph>
<glyph name="O" format="2">
	<advance width="732"/>
	<unicode hex="004F"/>
	<outline>
		<contour>
			<point x="366" y="-6" type="curve" smooth="yes"/>
			<point x="550" y="-6"/>
			<point x="672" y="140"/>
			<point x="672" y="358" type="curve" smooth="yes"/>
			<point x="672" y="567"/>
			<point x="550" y="706"/>
			<point x="366" y="706" type="curve" smooth="yes"/>
			<point x="182" y="706"/>
			<point x="60" y="567"/>
			<point x="60" y="358" type="curve" smooth="yes"/>
			<point x="60" y="140"/>
			<point x="182" y="-6"/>
		</contour>
		<contour>
			<point x="366" y="36" type="curve" smooth="yes"/>
			<point x="211" y="36"/>
			<point x="108" y="165"/>
			<point x="108" y="358" type="curve" smooth="yes"/>
			<point x="108" y="542"/>
			<point x="211" y="664"/>
			<point x="366" y="664" type="curve" smooth="yes"/>
			<point x="521" y="664"/>
			<point x="624" y="542"/>
			<point x="624" y="358" type="curve" smooth="yes"/>
			<point x="624" y="165"/>
			<point x="521" y="36"/>
		</contour>
	</outline>
</glyph>
<glyph name="P" format="2">
	<advance width="604"/>
	<unicode hex="0050"/>
	<outline>
		<contour>
			<point x="321" y="304" type="line" smooth="yes"/>
			<point x="455" y="304"/>
			<point x="544" y="383"/>
			<point x="544" y="502" type="curve" smooth="yes"/>
			<point x="544" y="621"/>
			<point x="455" y="700"/>
			<point x="321" y="700" type="curve" smooth="yes"/>
			<point x="101" y="700" type="line"/>
			<point x="101" y="658" type="line"/>
			<point x="321" y="658" type="line" smooth="yes"/>
			<point x="426" y="658"/>
			<point x="496" y="596"/>
			<point x="496" y="502" type="curve" smooth="yes"/>
			<point x="496" y="408"/>
			<point x="426" y="346"/>
			<point x="321" y="346" type="curve" smooth="yes"/>
			<point x="101" y="346" type="line"/>
			<point x="101" y="304" type="line"/>
		</contour>
		<contour>
			<point x="125" y="6" type="curve" smooth="yes"/>
			<point x="125" y="694" type="line" smooth="yes"/>
			<point x="125" y="697"/>
			<point x="122" y="700"/>
			<point x="119" y="700" type="curve" smooth="yes"/>
			<point x="86" y="700" type="line" smooth="yes"/>
			<point x="83" y="700"/>
			<point x="80" y="697"/>
			<point x="80" y="694" type="curve" smooth="yes"/>
			<point x="80" y="6" type="line" smooth="yes"/>
			<point x="80" y="3"/>
			<point x="83" y="0"/>
			<point x="86" y="0" type="curve" smooth="yes"/>
			<point x="119" y="0" type="line" smooth="yes"/>
			<point x="122" y="0"/>
			<point x="125" y="3"/>
		</contour>
	</outline>
</glyph>
<glyph name="Q" format="2">
	<advance width="735"/>
	<unicode hex="0051"/>
	<outline>
		<contour>
			<point x="366" y="-6" type="curve" smooth="yes"/>
			<point x="550" y="-6"/>
			<point x="672" y="140"/>
			<point x="672" y="358" type="curve" smooth="yes"/>
			<point x="672" y="567"/>
			<point x="550" y="706"/>
			<point x="366" y="706" type="curve" smooth="yes"/>
			<point x="182" y="706"/>
			<point x="60" y="567"/>
			<point x="60" y="358" type="curve" smooth="yes"/>
			<point x="60" y="140"/>
			<point x="182" y="-6"/>
		</contour>
		<contour>
			<point x="366" y="36" type="curve" smooth="yes"/>
			<point x="211" y="36"/>
			<point x="108" y="165"/>
			<point x="108" y="358" type="curve" smooth="yes"/>
			<point x="108" y="542"/>
			<point x="211" y="664"/>
			<point x="366" y="664" type="curve" smooth="yes"/>
			<point x="521" y="664"/>
			<point x="624" y="542"/>
			<point x="624" y="358" type="curve" smooth="yes"/>
			<point x="624" y="165"/>
			<point x="521" y="36"/>
		</contour>
		<contour>
			<point x="482" y="220" type="line"/>
			<point x="480" y="222"/>
			<point x="476" y="222"/>
			<point x="474" y="220" type="curve" smooth="yes"/>
			<point x="449" y="195" type="line" smooth="yes"/>
			<point x="447" y="193"/>
			<point x="447" y="189"/>
			<point x="449" y="187" type="curve" smooth="yes"/>
			<point x="641" y="-5" type="line" smooth="yes"/>
			<point x="643" y="-7"/>
			<point x="647" y="-7"/>
			<point x="649" y="-5" type="curve" smooth="yes"/>
			<point x="674" y="21" type="line" smooth="yes"/>
			<point x="676" y="23"/>
			<point x="676" y="27"/>
			<point x="674" y="29" type="curve" smooth="yes"/>
		</contour>
	</outline>
</glyph>
<glyph name="R" format="2">
	<advance width="606"/>
	<unicode hex="0052"/>
	<outline>
		<contour>
			<point x="80" y="6" type="line" smooth="yes"/>
			<point x="80" y="3"/>
			<point x="83" y="0"/>
			<point x="86" y="0" type="curve" smooth="yes"/>
			<point x="119" y="0" type="line" smooth="yes"/>
			<point x="122" y="0"/>
			<point x="125" y="3"/>
			<point x="125" y="6" type="curve" smooth="yes"/>
			<point x="125" y="298" type="line" smooth="yes"/>
			<point x="125" y="302"/>
			<point x="127" y="304"/>
			<point x="131" y="304" type="curve" smooth="yes"/>
			<point x="365" y="304" type="line" smooth="yes"/>
			<point x="391" y="304"/>
			<point x="410" y="272"/>
			<point x="441" y="178" type="curve" smooth="yes"/>
			<point x="498" y="5" type="line"/>
			<point x="499" y="1"/>
			<point x="502" y="0"/>
			<point x="505" y="0" type="curve" smooth="yes"/>
			<point x="541" y="0" type="line" smooth="yes"/>
			<point x="545" y="0"/>
			<point x="547" y="3"/>
			<point x="546" y="7" type="curve"/>
			<point x="489" y="178" type="line" smooth="yes"/>
			<point x="451" y="293"/>
			<point x="442" y="307"/>
			<point x="415" y="317" type="curve"/>
			<point x="412" y="325" type="line"/>
			<point x="485" y="356"/>
			<point x="534" y="427"/>
			<point x="534" y="502" type="curve" smooth="yes"/>
			<point x="534" y="621"/>
			<point x="449" y="700"/>
			<point x="321" y="700" type="curve" smooth="yes"/>
			<point x="86" y="700" type="line" smooth="yes"/>
			<point x="83" y="700"/>
			<point x="80" y="697"/>
			<point x="80" y="694" type="curve" smooth="yes"/>
		</contour>
		<contour>
			<point x="125" y="352" type="curve" smooth="yes"/>
			<point x="125" y="652" type="line" smooth="yes"/>
			<point x="125" y="656"/>
			<point x="127" y="658"/>
			<point x="131" y="658" type="curve" smooth="yes"/>
			<point x="321" y="658" type="line" smooth="yes"/>
			<point x="420" y="658"/>
			<point x="486" y="596"/>
			<point x="486" y="502" type="curve" smooth="yes"/>
			<point x="486" y="408"/>
			<point x="420" y="346"/>
			<point x="321" y="346" type="curve" smooth="yes"/>
			<point x="131" y="346" type="line" smooth="yes"/>
			<point x="127" y="346"/>
			<point x="125" y="348"/>
		</contour>
	</outline>
</glyph>
<glyph name="S" format="2">
	<advance width="634"/>
	<unicode hex="0053"/>
	<outline>
		<contour>
			<point x="326" y="706" type="curve" smooth="yes"/>
			<point x="185" y="706"/>
			<point x="91" y="634"/>
			<point x="90" y="525" type="curve"/>
			<point x="136" y="525" type="line"/>
			<point x="137" y="608"/>
			<point x="213" y="664"/>
			<point x="326" y="664" type="curve" smooth="yes"/>
			<point x="442" y="664"/>
			<point x="506" y="613"/>
			<point x="506" y="519" type="curve" smooth="yes"/>
			<point x="506" y="514"/>
			<point x="510" y="511"/>
			<point x="514" y="511" type="curve" smooth="yes"/>
			<point x="543" y="511" type="line" smooth="yes"/>
			<point x="547" y="511"/>
			<point x="551" y="514"/>
			<point x="551" y="518" type="curve" smooth="yes"/>
			<point x="551" y="639"/>
			<point x="471" y="706"/>
		</contour>
		<contour>
			<point x="90" y="525" type="line"/>
			<point x="90" y="249"/>
			<point x="528" y="402"/>
			<point x="528" y="189" type="curve"/>
			<point x="574" y="189" type="line"/>
			<point x="574" y="455"/>
			<point x="136" y="297"/>
			<point x="136" y="525" type="curve"/>
		</contour>
		<contour>
			<point x="326" y="-6" type="curve" smooth="yes"/>
			<point x="475" y="-6"/>
			<point x="574" y="72"/>
			<point x="574" y="189" type="curve"/>
			<point x="528" y="189" type="line"/>
			<point x="528" y="97"/>
			<point x="447" y="36"/>
			<point x="326" y="36" type="curve" smooth="yes"/>
			<point x="184" y="36"/>
			<point x="105" y="102"/>
			<point x="105" y="221" type="curve" smooth="yes"/>
			<point x="105" y="226"/>
			<point x="101" y="229"/>
			<point x="97" y="229" type="curve" smooth="yes"/>
			<point x="68" y="229" type="line" smooth="yes"/>
			<point x="64" y="229"/>
			<point x="60" y="226"/>
			<point x="60" y="222" type="curve" smooth="yes"/>
			<point x="60" y="75"/>
			<point x="155" y="-6"/>
		</contour>
	</outline>
</glyph>
<glyph name="T" format="2">
	<advance width="592"/>
	<unicode hex="0054"/>
	<outline>
		<contour>
			<point x="319" y="6" type="curve" smooth="yes"/>
			<point x="319" y="694" type="line" smooth="yes"/>
			<point x="319" y="697"/>
			<point x="316" y="700"/>
			<point x="313" y="700" type="curve" smooth="yes"/>
			<point x="280" y="700" type="line" smooth="yes"/>
			<point x="277" y="700"/>
			<point x="274" y="697"/>
			<point x="274" y="694" type="curve" smooth="yes"/>
			<point x="274" y="6" type="line" smooth="yes"/>
			<point x="274" y="3"/>
			<point x="277" y="0"/>
			<point x="280" y="0" type="curve" smooth="yes"/>
			<point x="313" y="0" type="line" smooth="yes"/>
			<point x="316" y="0"/>
			<point x="319" y="3"/>
		</contour>
		<contour>
			<point x="46" y="658" type="curve" smooth="yes"/>
			<point x="546" y="658" type="line" smooth="yes"/>
			<point x="549" y="658"/>
			<point x="552" y="661"/>
			<point x="552" y="664" type="curve" smooth="yes"/>
			<point x="552" y="694" type="line" smooth="yes"/>
			<point x="552" y="697"/>
			<point x="549" y="700"/>
			<point x="546" y="700" type="curve" smooth="yes"/>
			<point x="46" y="700" type="line" smooth="yes"/>
			<point x="43" y="700"/>
			<point x="40" y="697"/>
			<point x="40" y="694" type="curve" smooth="yes"/>
			<point x="40" y="664" type="line" smooth="yes"/>
			<point x="40" y="661"/>
			<point x="43" y="658"/>
		</contour>
	</outline>
</glyph>
<glyph name="U" format="1">
  <advance width="732"/>
  <unicode hex="0055"/>
  <outline>
    <contour>
      <point x="603" y="700" type="line" smooth="yes"/>
      <point x="599" y="700"/>
      <point x="597" y="698"/>
      <point x="597" y="694" type="curve" smooth="yes"/>
      <point x="597" y="288" type="line" smooth="yes"/>
      <point x="597" y="137"/>
      <point x="503" y="36"/>
      <point x="366" y="36" type="curve" smooth="yes"/>
      <point x="235" y="36"/>
      <point x="145" y="137"/>
      <point x="145" y="288" type="curve" smooth="yes"/>
      <point x="145" y="694" type="line" smooth="yes"/>
      <point x="145" y="698"/>
      <point x="143" y="700"/>
      <point x="139" y="700" type="curve" smooth="yes"/>
      <point x="106" y="700" type="line" smooth="yes"/>
      <point x="102" y="700"/>
      <point x="100" y="698"/>
      <point x="100" y="694" type="curve" smooth="yes"/>
      <point x="100" y="288" type="line" smooth="yes"/>
      <point x="100" y="112"/>
      <point x="206" y="-6"/>
      <point x="366" y="-6" type="curve" smooth="yes"/>
      <point x="532" y="-6"/>
      <point x="642" y="112"/>
      <point x="642" y="288" type="curve" smooth="yes"/>
      <point x="642" y="694" type="line" smooth="yes"/>
      <point x="642" y="698"/>
      <point x="640" y="700"/>
      <point x="636" y="700" type="curve" smooth="yes"/>
    </contour>
  </outline>
</glyph>
<glyph name="W" format="2">
	<advance width="1036"/>
	<unicode hex="0057"/>
	<outline>
		<contour>
			<point x="40" y="693" type="curve"/>
			<point x="261" y="4" type="line" smooth="yes"/>
			<point x="262" y="1"/>
			<point x="265" y="0"/>
			<point x="268" y="0" type="curve" smooth="yes"/>
			<point x="310" y="0" type="line" smooth="yes"/>
			<point x="313" y="0"/>
			<point x="316" y="1"/>
			<point x="317" y="4" type="curve" smooth="yes"/>
			<point x="514" y="638" type="line" smooth="yes"/>
			<point x="516" y="644"/>
			<point x="520" y="644"/>
			<point x="522" y="638" type="curve" smooth="yes"/>
			<point x="719" y="4" type="line" smooth="yes"/>
			<point x="720" y="1"/>
			<point x="723" y="0"/>
			<point x="726" y="0" type="curve" smooth="yes"/>
			<point x="768" y="0" type="line" smooth="yes"/>
			<point x="771" y="0"/>
			<point x="774" y="1"/>
			<point x="775" y="4" type="curve" smooth="yes"/>
			<point x="996" y="693" type="line"/>
			<point x="997" y="697"/>
			<point x="996" y="700"/>
			<point x="992" y="700" type="curve" smooth="yes"/>
			<point x="960" y="700" type="line" smooth="yes"/>
			<point x="957" y="700"/>
			<point x="954" y="699"/>
			<point x="953" y="695" type="curve"/>
			<point x="751" y="57" type="line" smooth="yes"/>
			<point x="749" y="51"/>
			<point x="745" y="51"/>
			<point x="743" y="57" type="curve" smooth="yes"/>
			<point x="551" y="695" type="line"/>
			<point x="550" y="699"/>
			<point x="547" y="700"/>
			<point x="544" y="700" type="curve" smooth="yes"/>
			<point x="492" y="700" type="line" smooth="yes"/>
			<point x="489" y="700"/>
			<point x="486" y="699"/>
			<point x="485" y="695" type="curve"/>
			<point x="293" y="57" type="line" smooth="yes"/>
			<point x="291" y="51"/>
			<point x="287" y="51"/>
			<point x="285" y="57" type="curve" smooth="yes"/>
			<point x="83" y="695" type="line"/>
			<point x="82" y="699"/>
			<point x="79" y="700"/>
			<point x="76" y="700" type="curve" smooth="yes"/>
			<point x="44" y="700" type="line" smooth="yes"/>
			<point x="40" y="700"/>
			<point x="39" y="697"/>
		</contour>
	</outline>
</glyph>
<glyph name="X" format="2">
	<advance width="596"/>
	<unicode hex="0058"/>
	<outline>
		<contour>
			<point x="41" y="7" type="line"/>
			<point x="39" y="3"/>
			<point x="40" y="0"/>
			<point x="45" y="0" type="curve" smooth="yes"/>
			<point x="78" y="0" type="line" smooth="yes"/>
			<point x="81" y="0"/>
			<point x="84" y="2"/>
			<point x="86" y="4" type="curve"/>
			<point x="298" y="332" type="line"/>
			<point x="510" y="4" type="line"/>
			<point x="512" y="2"/>
			<point x="515" y="0"/>
			<point x="518" y="0" type="curve" smooth="yes"/>
			<point x="551" y="0" type="line" smooth="yes"/>
			<point x="556" y="0"/>
			<point x="557" y="3"/>
			<point x="555" y="7" type="curve"/>
			<point x="321" y="365" type="line"/>
			<point x="535" y="693" type="line"/>
			<point x="537" y="697"/>
			<point x="536" y="700"/>
			<point x="531" y="700" type="curve" smooth="yes"/>
			<point x="498" y="700" type="line" smooth="yes"/>
			<point x="495" y="700"/>
			<point x="492" y="698"/>
			<point x="490" y="696" type="curve"/>
			<point x="298" y="398" type="line"/>
			<point x="106" y="696" type="line"/>
			<point x="104" y="698"/>
			<point x="101" y="700"/>
			<point x="98" y="700" type="curve" smooth="yes"/>
			<point x="65" y="700" type="line" smooth="yes"/>
			<point x="60" y="700"/>
			<point x="59" y="697"/>
			<point x="61" y="693" type="curve"/>
			<point x="275" y="365" type="line"/>
		</contour>
	</outline>
</glyph>
<glyph name="Y" format="1">
  <advance width="594"/>
  <unicode hex="0059"/>
  <outline>
    <contour>
      <point x="320" y="392" type="line" smooth="yes"/>
      <point x="320" y="395"/>
      <point x="317" y="398"/>
      <point x="314" y="398" type="curve" smooth="yes"/>
      <point x="281" y="398" type="line" smooth="yes"/>
      <point x="278" y="398"/>
      <point x="275" y="395"/>
      <point x="275" y="392" type="curve" smooth="yes"/>
      <point x="275" y="6" type="line" smooth="yes"/>
      <point x="275" y="3"/>
      <point x="278" y="0"/>
      <point x="281" y="0" type="curve" smooth="yes"/>
      <point x="314" y="0" type="line" smooth="yes"/>
      <point x="317" y="0"/>
      <point x="320" y="3"/>
      <point x="320" y="6" type="curve" smooth="yes"/>
    </contour>
    <contour>
      <point x="298" y="398" type="line"/>
      <point x="106" y="696" type="line"/>
      <point x="104" y="698"/>
      <point x="101" y="700"/>
      <point x="98" y="700" type="curve" smooth="yes"/>
      <point x="65" y="700" type="line" smooth="yes"/>
      <point x="60" y="700"/>
      <point x="59" y="697"/>
      <point x="61" y="693" type="curve"/>
      <point x="275" y="365" type="line"/>
    </contour>
    <contour>
      <point x="533" y="693" type="line"/>
      <point x="535" y="697"/>
      <point x="534" y="700"/>
      <point x="529" y="700" type="curve" smooth="yes"/>
      <point x="496" y="700" type="line" smooth="yes"/>
      <point x="493" y="700"/>
      <point x="490" y="698"/>
      <point x="488" y="696" type="curve"/>
      <point x="296" y="398" type="line"/>
      <point x="320" y="365" type="line"/>
    </contour>
  </outline>
</glyph>
<glyph name="Z" format="2">
	<advance width="598"/>
	<unicode hex="005A"/>
	<outline>
		<contour>
			<point x="80" y="694" type="curve" smooth="yes"/>
			<point x="80" y="664" type="line" smooth="yes"/>
			<point x="80" y="660"/>
			<point x="82" y="658"/>
			<point x="86" y="658" type="curve" smooth="yes"/>
			<point x="475" y="658" type="line" smooth="yes"/>
			<point x="480" y="658"/>
			<point x="481" y="655"/>
			<point x="478" y="651" type="curve" smooth="yes"/>
			<point x="63" y="45" type="line" smooth="yes"/>
			<point x="61" y="42"/>
			<point x="60" y="41"/>
			<point x="60" y="38" type="curve" smooth="yes"/>
			<point x="60" y="6" type="line" smooth="yes"/>
			<point x="60" y="2"/>
			<point x="63" y="0"/>
			<point x="66" y="0" type="curve" smooth="yes"/>
			<point x="532" y="0" type="line" smooth="yes"/>
			<point x="536" y="0"/>
			<point x="538" y="2"/>
			<point x="538" y="6" type="curve" smooth="yes"/>
			<point x="538" y="36" type="line" smooth="yes"/>
			<point x="538" y="40"/>
			<point x="536" y="42"/>
			<point x="532" y="42" type="curve" smooth="yes"/>
			<point x="123" y="42" type="line" smooth="yes"/>
			<point x="118" y="42"/>
			<point x="117" y="45"/>
			<point x="120" y="49" type="curve" smooth="yes"/>
			<point x="535" y="655" type="line" smooth="yes"/>
			<point x="537" y="658"/>
			<point x="538" y="659"/>
			<point x="538" y="662" type="curve" smooth="yes"/>
			<point x="538" y="694" type="line" smooth="yes"/>
			<point x="538" y="698"/>
			<point x="536" y="700"/>
			<point x="532" y="700" type="curve" smooth="yes"/>
			<point x="86" y="700" type="line" smooth="yes"/>
			<point x="82" y="700"/>
			<point x="80" y="698"/>
		</contour>
	</outline>
</glyph>
<glyph name="grave" format="2">
	<advance width="0"/>
	<unicode hex="0060"/>
	<outline>
		<contour>
			<point x="-327" y="761" type="curve" smooth="yes"/>
			<point x="-365" y="761" type="line" smooth="yes"/>
			<point x="-369" y="761"/>
			<point x="-371" y="758"/>
			<point x="-369" y="754" type="curve" smooth="yes"/>
			<point x="-275" y="605" type="line" smooth="yes"/>
			<point x="-273" y="603"/>
			<point x="-270" y="601"/>
			<point x="-267" y="601" type="curve" smooth="yes"/>
			<point x="-233" y="601" type="line" smooth="yes"/>
			<point x="-229" y="601"/>
			<point x="-227" y="604"/>
			<point x="-229" y="608" type="curve" smooth="yes"/>
			<point x="-320" y="757" type="line" smooth="yes"/>
			<point x="-321" y="759"/>
			<point x="-324" y="761"/>
		</contour>
	</outline>
</glyph>
<glyph name="a" format="2">
	<advance width="524"/>
	<unicode hex="0061"/>
	<outline>
		<contour>
			<point x="231" y="-6" type="curve" smooth="yes"/>
			<point x="341" y="-6"/>
			<point x="392" y="18"/>
			<point x="408" y="70" type="curve"/>
			<point x="412" y="72" type="line"/>
			<point x="412" y="158" type="line"/>
			<point x="412" y="73"/>
			<point x="360" y="34"/>
			<point x="231" y="34" type="curve" smooth="yes"/>
			<point x="150" y="34"/>
			<point x="96" y="80"/>
			<point x="96" y="148" type="curve" smooth="yes"/>
			<point x="96" y="228"/>
			<point x="150" y="281"/>
			<point x="231" y="281" type="curve" smooth="yes"/>
			<point x="360" y="281"/>
			<point x="412" y="242"/>
			<point x="412" y="158" type="curve"/>
			<point x="412" y="233" type="line"/>
			<point x="393" y="293"/>
			<point x="341" y="321"/>
			<point x="231" y="321" type="curve" smooth="yes"/>
			<point x="122" y="321"/>
			<point x="50" y="252"/>
			<point x="50" y="148" type="curve" smooth="yes"/>
			<point x="50" y="56"/>
			<point x="122" y="-6"/>
		</contour>
		<contour>
			<point x="263" y="526" type="curve" smooth="yes"/>
			<point x="139" y="526"/>
			<point x="70" y="473"/>
			<point x="70" y="377" type="curve" smooth="yes"/>
			<point x="70" y="374"/>
			<point x="73" y="371"/>
			<point x="76" y="371" type="curve" smooth="yes"/>
			<point x="107" y="371" type="line" smooth="yes"/>
			<point x="110" y="371"/>
			<point x="113" y="373"/>
			<point x="113" y="377" type="curve" smooth="yes"/>
			<point x="113" y="447"/>
			<point x="167" y="486"/>
			<point x="263" y="486" type="curve" smooth="yes"/>
			<point x="361" y="486"/>
			<point x="412" y="435"/>
			<point x="412" y="324" type="curve" smooth="yes"/>
			<point x="412" y="72" type="line"/>
			<point x="416" y="74" type="line"/>
			<point x="412" y="7" type="line" smooth="yes"/>
			<point x="412" y="3"/>
			<point x="414" y="0"/>
			<point x="418" y="0" type="curve" smooth="yes"/>
			<point x="448" y="0" type="line" smooth="yes"/>
			<point x="451" y="0"/>
			<point x="454" y="3"/>
			<point x="454" y="6" type="curve" smooth="yes"/>
			<point x="454" y="324" type="line" smooth="yes"/>
			<point x="454" y="463"/>
			<point x="390" y="526"/>
		</contour>
	</outline>
</glyph>
<glyph name="b" format="1">
  <advance width="597"/>
  <unicode hex="0062"/>
  <outline>
    <contour>
      <point x="103" y="800"/>
      <point x="100" y="797"/>
      <point x="100" y="794" type="curve" smooth="yes"/>
      <point x="100" y="6" type="line" smooth="yes"/>
      <point x="100" y="3"/>
      <point x="103" y="0"/>
      <point x="106" y="0" type="curve" smooth="yes"/>
      <point x="136" y="0" type="line" smooth="yes"/>
      <point x="140" y="0"/>
      <point x="142" y="3"/>
      <point x="142" y="7" type="curve" smooth="yes"/>
      <point x="138" y="104" type="line"/>
      <point x="142" y="102" type="line"/>
      <point x="142" y="418" type="line"/>
      <point x="138" y="416" type="line"/>
      <point x="142" y="483" type="line"/>
      <point x="142" y="794" type="line" smooth="yes"/>
      <point x="142" y="797"/>
      <point x="139" y="800"/>
      <point x="136" y="800" type="curve" smooth="yes"/>
      <point x="106" y="800" type="line" smooth="yes"/>
    </contour>
    <contour>
      <point x="172" y="28"/>
      <point x="227" y="-6"/>
      <point x="319" y="-6" type="curve" smooth="yes"/>
      <point x="450" y="-6"/>
      <point x="537" y="99"/>
      <point x="537" y="256" type="curve" smooth="yes"/>
      <point x="537" y="418"/>
      <point x="450" y="526"/>
      <point x="319" y="526" type="curve" smooth="yes"/>
      <point x="227" y="526"/>
      <point x="172" y="492"/>
      <point x="146" y="420" type="curve"/>
      <point x="142" y="418" type="line"/>
      <point x="142" y="334" type="line"/>
      <point x="142" y="413"/>
      <point x="193" y="486"/>
      <point x="299" y="486" type="curve" smooth="yes"/>
      <point x="414" y="486"/>
      <point x="491" y="394"/>
      <point x="491" y="256" type="curve" smooth="yes"/>
      <point x="491" y="123"/>
      <point x="414" y="34"/>
      <point x="299" y="34" type="curve" smooth="yes"/>
      <point x="193" y="34"/>
      <point x="142" y="107"/>
      <point x="142" y="186" type="curve"/>
      <point x="142" y="102" type="line"/>
      <point x="146" y="100" type="line"/>
    </contour>
  </outline>
</glyph>
<glyph name="c" format="2">
	<advance width="508"/>
	<unicode hex="0063"/>
	<outline>
		<contour>
			<point x="276" y="-4" type="curve" smooth="yes"/>
			<point x="372" y="-4"/>
			<point x="448" y="56"/>
			<point x="468" y="146" type="curve" smooth="yes"/>
			<point x="469" y="149"/>
			<point x="467" y="151"/>
			<point x="462" y="151" type="curve" smooth="yes"/>
			<point x="432" y="151" type="line" smooth="yes"/>
			<point x="428" y="151"/>
			<point x="426" y="149"/>
			<point x="426" y="145" type="curve"/>
			<point x="402" y="80"/>
			<point x="342" y="36"/>
			<point x="276" y="36" type="curve" smooth="yes"/>
			<point x="162" y="36"/>
			<point x="86" y="128"/>
			<point x="86" y="265" type="curve" smooth="yes"/>
			<point x="86" y="398"/>
			<point x="162" y="486"/>
			<point x="276" y="486" type="curve" smooth="yes"/>
			<point x="346" y="486"/>
			<point x="406" y="442"/>
			<point x="426" y="377" type="curve" smooth="yes"/>
			<point x="427" y="373"/>
			<point x="429" y="371"/>
			<point x="432" y="371" type="curve" smooth="yes"/>
			<point x="462" y="371" type="line" smooth="yes"/>
			<point x="467" y="371"/>
			<point x="469" y="373"/>
			<point x="468" y="376" type="curve" smooth="yes"/>
			<point x="448" y="466"/>
			<point x="371" y="526"/>
			<point x="276" y="526" type="curve" smooth="yes"/>
			<point x="134" y="526"/>
			<point x="40" y="422"/>
			<point x="40" y="265" type="curve" smooth="yes"/>
			<point x="40" y="104"/>
			<point x="134" y="-4"/>
		</contour>
	</outline>
</glyph>
<glyph name="d" format="2">
	<advance width="567"/>
	<unicode hex="0064"/>
	<outline>
		<contour>
			<point x="481" y="800" type="curve" smooth="yes"/>
			<point x="451" y="800" type="line" smooth="yes"/>
			<point x="448" y="800"/>
			<point x="445" y="797"/>
			<point x="445" y="794" type="curve" smooth="yes"/>
			<point x="445" y="483" type="line"/>
			<point x="449" y="416" type="line"/>
			<point x="445" y="418" type="line"/>
			<point x="445" y="102" type="line"/>
			<point x="449" y="104" type="line"/>
			<point x="445" y="7" type="line" smooth="yes"/>
			<point x="445" y="3"/>
			<point x="447" y="0"/>
			<point x="451" y="0" type="curve" smooth="yes"/>
			<point x="481" y="0" type="line" smooth="yes"/>
			<point x="484" y="0"/>
			<point x="487" y="3"/>
			<point x="487" y="6" type="curve" smooth="yes"/>
			<point x="487" y="794" type="line" smooth="yes"/>
			<point x="487" y="797"/>
			<point x="484" y="800"/>
		</contour>
		<contour>
			<point x="441" y="100" type="curve"/>
			<point x="445" y="102" type="line"/>
			<point x="445" y="186" type="line"/>
			<point x="445" y="107"/>
			<point x="394" y="34"/>
			<point x="288" y="34" type="curve" smooth="yes"/>
			<point x="173" y="34"/>
			<point x="96" y="123"/>
			<point x="96" y="256" type="curve" smooth="yes"/>
			<point x="96" y="394"/>
			<point x="173" y="486"/>
			<point x="288" y="486" type="curve" smooth="yes"/>
			<point x="394" y="486"/>
			<point x="445" y="413"/>
			<point x="445" y="334" type="curve"/>
			<point x="445" y="418" type="line"/>
			<point x="441" y="420" type="line"/>
			<point x="415" y="492"/>
			<point x="360" y="526"/>
			<point x="268" y="526" type="curve" smooth="yes"/>
			<point x="137" y="526"/>
			<point x="50" y="418"/>
			<point x="50" y="256" type="curve" smooth="yes"/>
			<point x="50" y="99"/>
			<point x="137" y="-6"/>
			<point x="268" y="-6" type="curve" smooth="yes"/>
			<point x="360" y="-6"/>
			<point x="415" y="28"/>
		</contour>
	</outline>
</glyph>
<glyph name="e" format="1">
  <advance width="573"/>
  <unicode hex="0065"/>
  <outline>
    <contour>
      <point x="150" y="526"/>
      <point x="60" y="420"/>
      <point x="60" y="261" type="curve"/>
      <point x="106" y="261" type="line"/>
      <point x="106" y="396"/>
      <point x="178" y="486"/>
      <point x="286" y="486" type="curve" smooth="yes"/>
      <point x="395" y="486"/>
      <point x="467" y="408"/>
      <point x="467" y="290" type="curve" smooth="yes"/>
      <point x="467" y="282"/>
      <point x="466" y="281"/>
      <point x="460" y="281" type="curve" smooth="yes"/>
      <point x="96" y="281" type="line"/>
      <point x="96" y="241" type="line"/>
      <point x="502" y="241" type="line" smooth="yes"/>
      <point x="509" y="241"/>
      <point x="513" y="245"/>
      <point x="513" y="252" type="curve" smooth="yes"/>
      <point x="513" y="428"/>
      <point x="432" y="526"/>
      <point x="286" y="526" type="curve" smooth="yes"/>
    </contour>
    <contour>
      <point x="399" y="-4"/>
      <point x="481" y="51"/>
      <point x="501" y="134" type="curve" smooth="yes"/>
      <point x="502" y="137"/>
      <point x="500" y="139"/>
      <point x="495" y="139" type="curve" smooth="yes"/>
      <point x="464" y="139" type="line" smooth="yes"/>
      <point x="461" y="139"/>
      <point x="459" y="137"/>
      <point x="458" y="133" type="curve" smooth="yes"/>
      <point x="438" y="75"/>
      <point x="373" y="36"/>
      <point x="296" y="36" type="curve" smooth="yes"/>
      <point x="182" y="36"/>
      <point x="106" y="126"/>
      <point x="106" y="261" type="curve"/>
      <point x="60" y="261" type="line"/>
      <point x="60" y="102"/>
      <point x="154" y="-4"/>
      <point x="296" y="-4" type="curve" smooth="yes"/>
    </contour>
  </outline>
</glyph>
<glyph name="f" format="1">
  <advance width="369"/>
  <unicode hex="0066"/>
  <outline>
    <contour>
      <point x="176" y="0" type="line" smooth="yes"/>
      <point x="179" y="0"/>
      <point x="182" y="3"/>
      <point x="182" y="6" type="curve" smooth="yes"/>
      <point x="182" y="637" type="line" smooth="yes"/>
      <point x="182" y="711"/>
      <point x="238" y="760"/>
      <point x="323" y="760" type="curve" smooth="yes"/>
      <point x="326" y="760"/>
      <point x="329" y="763"/>
      <point x="329" y="766" type="curve" smooth="yes"/>
      <point x="328" y="794" type="line" smooth="yes"/>
      <point x="328" y="798"/>
      <point x="325" y="800"/>
      <point x="322" y="800" type="curve" smooth="yes"/>
      <point x="213" y="800"/>
      <point x="140" y="735"/>
      <point x="140" y="637" type="curve" smooth="yes"/>
      <point x="140" y="6" type="line" smooth="yes"/>
      <point x="140" y="3"/>
      <point x="143" y="0"/>
      <point x="146" y="0" type="curve" smooth="yes"/>
    </contour>
    <contour>
      <point x="296" y="480" type="line" smooth="yes"/>
      <point x="299" y="480"/>
      <point x="302" y="483"/>
      <point x="302" y="486" type="curve" smooth="yes"/>
      <point x="302" y="514" type="line" smooth="yes"/>
      <point x="302" y="517"/>
      <point x="299" y="520"/>
      <point x="296" y="520" type="curve" smooth="yes"/>
      <point x="66" y="520" type="line" smooth="yes"/>
      <point x="63" y="520"/>
      <point x="60" y="517"/>
      <point x="60" y="514" type="curve" smooth="yes"/>
      <point x="60" y="486" type="line" smooth="yes"/>
      <point x="60" y="483"/>
      <point x="63" y="480"/>
      <point x="66" y="480" type="curve" smooth="yes"/>
    </contour>
  </outline>
</glyph>
<glyph name="g" format="2">
	<advance width="538"/>
	<unicode hex="0067"/>
	<outline>
		<contour>
			<point x="468" y="-6" type="line"/>
			<point x="468" y="514" type="line" smooth="yes"/>
			<point x="468" y="517"/>
			<point x="465" y="520"/>
			<point x="462" y="520" type="curve" smooth="yes"/>
			<point x="431" y="520" type="line" smooth="yes"/>
			<point x="427" y="520"/>
			<point x="425" y="517"/>
			<point x="425" y="513" type="curve" smooth="yes"/>
			<point x="429" y="416" type="line"/>
			<point x="425" y="418" type="line"/>
			<point x="425" y="102" type="line"/>
			<point x="429" y="104" type="line"/>
			<point x="425" y="37" type="line"/>
			<point x="425" y="-6" type="line"/>
		</contour>
		<contour>
			<point x="421" y="420" type="line"/>
			<point x="395" y="492"/>
			<point x="330" y="526"/>
			<point x="238" y="526" type="curve" smooth="yes"/>
			<point x="119" y="526"/>
			<point x="40" y="421"/>
			<point x="40" y="264" type="curve" smooth="yes"/>
			<point x="40" y="102"/>
			<point x="119" y="-6"/>
			<point x="238" y="-6" type="curve" smooth="yes"/>
			<point x="330" y="-6"/>
			<point x="395" y="28"/>
			<point x="421" y="100" type="curve"/>
			<point x="425" y="102" type="line"/>
			<point x="425" y="186" type="line"/>
			<point x="425" y="107"/>
			<point x="364" y="34"/>
			<point x="258" y="34" type="curve" smooth="yes"/>
			<point x="155" y="34"/>
			<point x="86" y="126"/>
			<point x="86" y="264" type="curve" smooth="yes"/>
			<point x="86" y="397"/>
			<point x="155" y="486"/>
			<point x="258" y="486" type="curve" smooth="yes"/>
			<point x="364" y="486"/>
			<point x="425" y="413"/>
			<point x="425" y="334" type="curve"/>
			<point x="425" y="418" type="line"/>
		</contour>
		<contour>
			<point x="260" y="-206" type="curve" smooth="yes"/>
			<point x="384" y="-206"/>
			<point x="467" y="-126"/>
			<point x="468" y="-6" type="curve"/>
			<point x="425" y="-6" type="line"/>
			<point x="425" y="-102"/>
			<point x="359" y="-166"/>
			<point x="260" y="-166" type="curve" smooth="yes"/>
			<point x="174" y="-166"/>
			<point x="117" y="-126"/>
			<point x="117" y="-67" type="curve" smooth="yes"/>
			<point x="117" y="-63"/>
			<point x="114" y="-61"/>
			<point x="111" y="-61" type="curve" smooth="yes"/>
			<point x="80" y="-61" type="line" smooth="yes"/>
			<point x="77" y="-61"/>
			<point x="74" y="-63"/>
			<point x="74" y="-66" type="curve" smooth="yes"/>
			<point x="74" y="-150"/>
			<point x="148" y="-206"/>
		</contour>
	</outline>
</glyph>
<glyph name="h" format="2">
	<advance width="538"/>
	<unicode hex="0068"/>
	<outline>
		<contour>
			<point x="70" y="794" type="curve" smooth="yes"/>
			<point x="70" y="6" type="line" smooth="yes"/>
			<point x="70" y="3"/>
			<point x="73" y="0"/>
			<point x="76" y="0" type="curve" smooth="yes"/>
			<point x="107" y="0" type="line" smooth="yes"/>
			<point x="110" y="0"/>
			<point x="113" y="3"/>
			<point x="113" y="6" type="curve" smooth="yes"/>
			<point x="113" y="417" type="line"/>
			<point x="109" y="416" type="line"/>
			<point x="113" y="514" type="line"/>
			<point x="113" y="794" type="line"/>
			<point x="113" y="797"/>
			<point x="110" y="800"/>
			<point x="107" y="800" type="curve" smooth="yes"/>
			<point x="76" y="800" type="line" smooth="yes"/>
			<point x="73" y="800"/>
			<point x="70" y="797"/>
		</contour>
		<contour>
			<point x="468" y="6" type="curve" smooth="yes"/>
			<point x="468" y="318" type="line" smooth="yes"/>
			<point x="468" y="452"/>
			<point x="403" y="526"/>
			<point x="287" y="526" type="curve" smooth="yes"/>
			<point x="195" y="526"/>
			<point x="143" y="490"/>
			<point x="117" y="418" type="curve"/>
			<point x="113" y="417" type="line"/>
			<point x="113" y="345" type="line"/>
			<point x="113" y="424"/>
			<point x="181" y="486"/>
			<point x="287" y="486" type="curve" smooth="yes"/>
			<point x="376" y="486"/>
			<point x="425" y="426"/>
			<point x="425" y="318" type="curve" smooth="yes"/>
			<point x="425" y="6" type="line" smooth="yes"/>
			<point x="425" y="3"/>
			<point x="428" y="0"/>
			<point x="431" y="0" type="curve" smooth="yes"/>
			<point x="462" y="0" type="line" smooth="yes"/>
			<point x="465" y="0"/>
			<point x="468" y="3"/>
		</contour>
	</outline>
</glyph>
<glyph name="i" format="2">
	<advance width="223"/>
	<unicode hex="0069"/>
	<outline>
		<contour>
			<point x="133" y="6" type="curve" smooth="yes"/>
			<point x="133" y="514" type="line" smooth="yes"/>
			<point x="133" y="517"/>
			<point x="130" y="520"/>
			<point x="127" y="520" type="curve" smooth="yes"/>
			<point x="96" y="520" type="line" smooth="yes"/>
			<point x="93" y="520"/>
			<point x="90" y="517"/>
			<point x="90" y="514" type="curve" smooth="yes"/>
			<point x="90" y="6" type="line" smooth="yes"/>
			<point x="90" y="3"/>
			<point x="93" y="0"/>
			<point x="96" y="0" type="curve" smooth="yes"/>
			<point x="127" y="0" type="line" smooth="yes"/>
			<point x="130" y="0"/>
			<point x="133" y="3"/>
		</contour>
		<contour>
			<point x="80" y="732" type="curve"/>
			<point x="80" y="731" type="line"/>
			<point x="79" y="711"/>
			<point x="91" y="699"/>
			<point x="111" y="700" type="curve"/>
			<point x="112" y="700" type="line"/>
			<point x="132" y="699"/>
			<point x="144" y="711"/>
			<point x="143" y="731" type="curve"/>
			<point x="143" y="732" type="line"/>
			<point x="144" y="752"/>
			<point x="132" y="764"/>
			<point x="112" y="763" type="curve"/>
			<point x="111" y="763" type="line"/>
			<point x="91" y="764"/>
			<point x="79" y="752"/>
		</contour>
	</outline>
</glyph>
<glyph name="j" format="1">
  <advance width="297"/>
  <unicode hex="006A"/>
  <outline>
    <contour>
      <point x="187" y="517"/>
      <point x="184" y="520"/>
      <point x="181" y="520" type="curve" smooth="yes"/>
      <point x="150" y="520" type="line" smooth="yes"/>
      <point x="147" y="520"/>
      <point x="144" y="517"/>
      <point x="144" y="514" type="curve" smooth="yes"/>
      <point x="144" y="-74" type="line" smooth="yes"/>
      <point x="144" y="-126"/>
      <point x="121" y="-160"/>
      <point x="86" y="-160" type="curve" smooth="yes"/>
      <point x="81" y="-160"/>
      <point x="80" y="-161"/>
      <point x="80" y="-166" type="curve" smooth="yes"/>
      <point x="80" y="-194" type="line" smooth="yes"/>
      <point x="80" y="-199"/>
      <point x="81" y="-200"/>
      <point x="86" y="-200" type="curve" smooth="yes"/>
      <point x="146" y="-200"/>
      <point x="187" y="-158"/>
      <point x="187" y="-94" type="curve" smooth="yes"/>
      <point x="187" y="514" type="line" smooth="yes"/>
    </contour>
    <contour>
      <point x="134" y="731" type="line" smooth="yes"/>
      <point x="134" y="712"/>
      <point x="146" y="700"/>
      <point x="165" y="700" type="curve" smooth="yes"/>
      <point x="166" y="700" type="line" smooth="yes"/>
      <point x="185" y="700"/>
      <point x="197" y="712"/>
      <point x="197" y="731" type="curve" smooth="yes"/>
      <point x="197" y="732" type="line" smooth="yes"/>
      <point x="197" y="751"/>
      <point x="185" y="763"/>
      <point x="166" y="763" type="curve" smooth="yes"/>
      <point x="165" y="763" type="line" smooth="yes"/>
      <point x="146" y="763"/>
      <point x="134" y="751"/>
      <point x="134" y="732" type="curve" smooth="yes"/>
    </contour>
  </outline>
</glyph>
<glyph name="k" format="2">
	<advance width="489"/>
	<unicode hex="006B"/>
	<outline>
		<contour>
			<point x="198" y="308" type="line"/>
			<point x="178" y="290" type="line"/>
			<point x="397" y="4" type="line" smooth="yes"/>
			<point x="399" y="2"/>
			<point x="402" y="0"/>
			<point x="405" y="0" type="curve" smooth="yes"/>
			<point x="444" y="0" type="line" smooth="yes"/>
			<point x="449" y="0"/>
			<point x="450" y="3"/>
			<point x="447" y="7" type="curve" smooth="yes"/>
			<point x="220" y="300" type="line" smooth="yes"/>
			<point x="218" y="303"/>
			<point x="216" y="303"/>
			<point x="202" y="303" type="curve"/>
		</contour>
		<contour>
			<point x="109" y="270" type="line"/>
			<point x="108" y="217" type="line"/>
			<point x="421" y="513" type="line" smooth="yes"/>
			<point x="425" y="516"/>
			<point x="423" y="520"/>
			<point x="418" y="520" type="curve" smooth="yes"/>
			<point x="373" y="520" type="line" smooth="yes"/>
			<point x="370" y="520"/>
			<point x="368" y="519"/>
			<point x="366" y="517" type="curve" smooth="yes"/>
		</contour>
		<contour>
			<point x="70" y="794" type="curve" smooth="yes"/>
			<point x="70" y="6" type="line" smooth="yes"/>
			<point x="70" y="2"/>
			<point x="73" y="0"/>
			<point x="76" y="0" type="curve" smooth="yes"/>
			<point x="107" y="0" type="line" smooth="yes"/>
			<point x="111" y="0"/>
			<point x="113" y="3"/>
			<point x="113" y="6" type="curve" smooth="yes"/>
			<point x="113" y="794" type="line" smooth="yes"/>
			<point x="113" y="798"/>
			<point x="110" y="800"/>
			<point x="107" y="800" type="curve" smooth="yes"/>
			<point x="76" y="800" type="line" smooth="yes"/>
			<point x="72" y="800"/>
			<point x="70" y="797"/>
		</contour>
	</outline>
</glyph>
<glyph name="l" format="2">
	<advance width="237"/>
	<unicode hex="006C"/>
	<outline>
		<contour>
			<point x="80" y="794" type="curve" smooth="yes"/>
			<point x="80" y="100" type="line" smooth="yes"/>
			<point x="80" y="36"/>
			<point x="121" y="-6"/>
			<point x="181" y="-6" type="curve" smooth="yes"/>
			<point x="186" y="-6"/>
			<point x="187" y="-5"/>
			<point x="187" y="0" type="curve" smooth="yes"/>
			<point x="187" y="28" type="line" smooth="yes"/>
			<point x="187" y="33"/>
			<point x="186" y="34"/>
			<point x="181" y="34" type="curve" smooth="yes"/>
			<point x="146" y="34"/>
			<point x="123" y="68"/>
			<point x="123" y="120" type="curve" smooth="yes"/>
			<point x="123" y="794" type="line" smooth="yes"/>
			<point x="123" y="797"/>
			<point x="120" y="800"/>
			<point x="117" y="800" type="curve" smooth="yes"/>
			<point x="86" y="800" type="line" smooth="yes"/>
			<point x="83" y="800"/>
			<point x="80" y="797"/>
		</contour>
	</outline>
</glyph>
<glyph name="m" format="2">
	<advance width="811"/>
	<unicode hex="006D"/>
	<outline>
		<contour>
			<point x="80" y="514" type="curve" smooth="yes"/>
			<point x="80" y="6" type="line" smooth="yes"/>
			<point x="80" y="3"/>
			<point x="83" y="0"/>
			<point x="86" y="0" type="curve" smooth="yes"/>
			<point x="117" y="0" type="line" smooth="yes"/>
			<point x="120" y="0"/>
			<point x="123" y="3"/>
			<point x="123" y="6" type="curve" smooth="yes"/>
			<point x="123" y="417" type="line"/>
			<point x="119" y="416" type="line"/>
			<point x="123" y="514" type="line"/>
			<point x="123" y="517"/>
			<point x="120" y="520"/>
			<point x="117" y="520" type="curve" smooth="yes"/>
			<point x="86" y="520" type="line" smooth="yes"/>
			<point x="83" y="520"/>
			<point x="80" y="517"/>
		</contour>
		<contour>
			<point x="432" y="6" type="curve" smooth="yes"/>
			<point x="432" y="318" type="line" smooth="yes"/>
			<point x="432" y="452"/>
			<point x="375" y="526"/>
			<point x="271" y="526" type="curve" smooth="yes"/>
			<point x="199" y="526"/>
			<point x="139" y="483"/>
			<point x="127" y="418" type="curve"/>
			<point x="123" y="417" type="line"/>
			<point x="123" y="345" type="line"/>
			<point x="123" y="424"/>
			<point x="185" y="486"/>
			<point x="271" y="486" type="curve" smooth="yes"/>
			<point x="347" y="486"/>
			<point x="389" y="426"/>
			<point x="389" y="318" type="curve" smooth="yes"/>
			<point x="389" y="6" type="line" smooth="yes"/>
			<point x="389" y="3"/>
			<point x="392" y="0"/>
			<point x="395" y="0" type="curve" smooth="yes"/>
			<point x="426" y="0" type="line" smooth="yes"/>
			<point x="429" y="0"/>
			<point x="432" y="3"/>
		</contour>
		<contour>
			<point x="741" y="6" type="curve" smooth="yes"/>
			<point x="741" y="318" type="line" smooth="yes"/>
			<point x="741" y="452"/>
			<point x="680" y="526"/>
			<point x="570" y="526" type="curve" smooth="yes"/>
			<point x="488" y="526"/>
			<point x="441" y="491"/>
			<point x="419" y="429" type="curve"/>
			<point x="410" y="426" type="line"/>
			<point x="432" y="318" type="line"/>
			<point x="432" y="426"/>
			<point x="475" y="486"/>
			<point x="570" y="486" type="curve" smooth="yes"/>
			<point x="652" y="486"/>
			<point x="698" y="426"/>
			<point x="698" y="318" type="curve" smooth="yes"/>
			<point x="698" y="6" type="line" smooth="yes"/>
			<point x="698" y="3"/>
			<point x="701" y="0"/>
			<point x="704" y="0" type="curve" smooth="yes"/>
			<point x="735" y="0" type="line" smooth="yes"/>
			<point x="738" y="0"/>
			<point x="741" y="3"/>
		</contour>
	</outline>
</glyph>
<glyph name="o" format="2">
	<advance width="558"/>
	<unicode hex="006F"/>
	<outline>
		<contour>
			<point x="279" y="-6" type="curve" smooth="yes"/>
			<point x="416" y="-6"/>
			<point x="508" y="103"/>
			<point x="508" y="266" type="curve" smooth="yes"/>
			<point x="508" y="422"/>
			<point x="416" y="526"/>
			<point x="279" y="526" type="curve" smooth="yes"/>
			<point x="142" y="526"/>
			<point x="50" y="422"/>
			<point x="50" y="266" type="curve" smooth="yes"/>
			<point x="50" y="103"/>
			<point x="142" y="-6"/>
		</contour>
		<contour>
			<point x="279" y="34" type="curve" smooth="yes"/>
			<point x="169" y="34"/>
			<point x="96" y="127"/>
			<point x="96" y="266" type="curve" smooth="yes"/>
			<point x="96" y="398"/>
			<point x="169" y="486"/>
			<point x="279" y="486" type="curve" smooth="yes"/>
			<point x="389" y="486"/>
			<point x="462" y="398"/>
			<point x="462" y="266" type="curve" smooth="yes"/>
			<point x="462" y="127"/>
			<point x="389" y="34"/>
		</contour>
	</outline>
</glyph>
<glyph name="p" format="1">
  <advance width="597"/>
  <unicode hex="0070"/>
  <outline>
    <contour>
      <point x="136" y="-280" type="line" smooth="yes"/>
      <point x="139" y="-280"/>
      <point x="142" y="-277"/>
      <point x="142" y="-274" type="curve" smooth="yes"/>
      <point x="142" y="37" type="line"/>
      <point x="138" y="104" type="line"/>
      <point x="142" y="102" type="line"/>
      <point x="142" y="418" type="line"/>
      <point x="138" y="416" type="line"/>
      <point x="142" y="513" type="line" smooth="yes"/>
      <point x="142" y="517"/>
      <point x="140" y="520"/>
      <point x="136" y="520" type="curve" smooth="yes"/>
      <point x="106" y="520" type="line" smooth="yes"/>
      <point x="103" y="520"/>
      <point x="100" y="517"/>
      <point x="100" y="514" type="curve" smooth="yes"/>
      <point x="100" y="-274" type="line" smooth="yes"/>
      <point x="100" y="-277"/>
      <point x="103" y="-280"/>
      <point x="106" y="-280" type="curve" smooth="yes"/>
    </contour>
    <contour>
      <point x="142" y="418" type="line"/>
      <point x="142" y="334" type="line"/>
      <point x="142" y="413"/>
      <point x="193" y="486"/>
      <point x="299" y="486" type="curve" smooth="yes"/>
      <point x="414" y="486"/>
      <point x="491" y="397"/>
      <point x="491" y="264" type="curve" smooth="yes"/>
      <point x="491" y="126"/>
      <point x="414" y="34"/>
      <point x="299" y="34" type="curve" smooth="yes"/>
      <point x="193" y="34"/>
      <point x="142" y="107"/>
      <point x="142" y="186" type="curve"/>
      <point x="142" y="102" type="line"/>
      <point x="146" y="100" type="line"/>
      <point x="172" y="28"/>
      <point x="227" y="-6"/>
      <point x="319" y="-6" type="curve" smooth="yes"/>
      <point x="450" y="-6"/>
      <point x="537" y="102"/>
      <point x="537" y="264" type="curve" smooth="yes"/>
      <point x="537" y="421"/>
      <point x="450" y="526"/>
      <point x="319" y="526" type="curve" smooth="yes"/>
      <point x="227" y="526"/>
      <point x="172" y="492"/>
      <point x="146" y="420" type="curve"/>
    </contour>
  </outline>
</glyph>
<glyph name="q" format="2">
	<advance width="547"/>
	<unicode hex="0071"/>
	<outline>
		<contour>
			<point x="471" y="-280" type="line" smooth="yes"/>
			<point x="474" y="-280"/>
			<point x="477" y="-277"/>
			<point x="477" y="-274" type="curve" smooth="yes"/>
			<point x="477" y="514" type="line" smooth="yes"/>
			<point x="477" y="517"/>
			<point x="474" y="520"/>
			<point x="471" y="520" type="curve" smooth="yes"/>
			<point x="441" y="520" type="line" smooth="yes"/>
			<point x="437" y="520"/>
			<point x="435" y="517"/>
			<point x="435" y="513" type="curve" smooth="yes"/>
			<point x="439" y="416" type="line"/>
			<point x="435" y="418" type="line"/>
			<point x="435" y="102" type="line"/>
			<point x="439" y="104" type="line"/>
			<point x="435" y="37" type="line"/>
			<point x="435" y="-274" type="line" smooth="yes"/>
			<point x="435" y="-277"/>
			<point x="438" y="-280"/>
			<point x="441" y="-280" type="curve" smooth="yes"/>
		</contour>
		<contour>
			<point x="431" y="420" type="line"/>
			<point x="405" y="492"/>
			<point x="350" y="526"/>
			<point x="258" y="526" type="curve" smooth="yes"/>
			<point x="127" y="526"/>
			<point x="40" y="421"/>
			<point x="40" y="264" type="curve" smooth="yes"/>
			<point x="40" y="102"/>
			<point x="127" y="-6"/>
			<point x="258" y="-6" type="curve" smooth="yes"/>
			<point x="350" y="-6"/>
			<point x="405" y="28"/>
			<point x="431" y="100" type="curve"/>
			<point x="435" y="102" type="line"/>
			<point x="435" y="186" type="line"/>
			<point x="435" y="107"/>
			<point x="384" y="34"/>
			<point x="278" y="34" type="curve" smooth="yes"/>
			<point x="163" y="34"/>
			<point x="86" y="126"/>
			<point x="86" y="264" type="curve" smooth="yes"/>
			<point x="86" y="397"/>
			<point x="163" y="486"/>
			<point x="278" y="486" type="curve" smooth="yes"/>
			<point x="384" y="486"/>
			<point x="435" y="413"/>
			<point x="435" y="334" type="curve"/>
			<point x="435" y="418" type="line"/>
		</contour>
	</outline>
</glyph>
<glyph name="r" format="2">
	<advance width="403"/>
	<unicode hex="0072"/>
	<outline>
		<contour>
			<point x="70" y="514" type="curve" smooth="yes"/>
			<point x="70" y="6" type="line" smooth="yes"/>
			<point x="70" y="3"/>
			<point x="73" y="0"/>
			<point x="76" y="0" type="curve" smooth="yes"/>
			<point x="107" y="0" type="line" smooth="yes"/>
			<point x="110" y="0"/>
			<point x="113" y="3"/>
			<point x="113" y="6" type="curve" smooth="yes"/>
			<point x="113" y="417" type="line"/>
			<point x="109" y="416" type="line"/>
			<point x="113" y="514" type="line"/>
			<point x="113" y="517"/>
			<point x="110" y="520"/>
			<point x="107" y="520" type="curve" smooth="yes"/>
			<point x="76" y="520" type="line" smooth="yes"/>
			<point x="73" y="520"/>
			<point x="70" y="517"/>
		</contour>
		<contour>
			<point x="336" y="421" type="curve" smooth="yes"/>
			<point x="367" y="421" type="line" smooth="yes"/>
			<point x="370" y="421"/>
			<point x="373" y="424"/>
			<point x="373" y="427" type="curve" smooth="yes"/>
			<point x="373" y="486"/>
			<point x="331" y="526"/>
			<point x="267" y="526" type="curve" smooth="yes"/>
			<point x="195" y="526"/>
			<point x="143" y="490"/>
			<point x="117" y="418" type="curve"/>
			<point x="113" y="417" type="line"/>
			<point x="113" y="345" type="line"/>
			<point x="131" y="416"/>
			<point x="187" y="486"/>
			<point x="267" y="486" type="curve" smooth="yes"/>
			<point x="305" y="486"/>
			<point x="330" y="462"/>
			<point x="330" y="427" type="curve" smooth="yes"/>
			<point x="330" y="424"/>
			<point x="333" y="421"/>
		</contour>
	</outline>
</glyph>
<glyph name="s" format="1">
  <advance width="522"/>
  <unicode hex="0073"/>
  <outline>
    <contour>
      <point x="156" y="526"/>
      <point x="83" y="472"/>
      <point x="82" y="391" type="curve"/>
      <point x="128" y="391" type="line"/>
      <point x="129" y="448"/>
      <point x="184" y="486"/>
      <point x="265" y="486" type="curve" smooth="yes"/>
      <point x="354" y="486"/>
      <point x="403" y="451"/>
      <point x="403" y="387" type="curve" smooth="yes"/>
      <point x="403" y="383"/>
      <point x="406" y="381"/>
      <point x="409" y="381" type="curve" smooth="yes"/>
      <point x="439" y="381" type="line" smooth="yes"/>
      <point x="442" y="381"/>
      <point x="445" y="383"/>
      <point x="445" y="386" type="curve" smooth="yes"/>
      <point x="445" y="476"/>
      <point x="381" y="526"/>
      <point x="265" y="526" type="curve" smooth="yes"/>
    </contour>
    <contour>
      <point x="82" y="186"/>
      <point x="416" y="300"/>
      <point x="416" y="141" type="curve"/>
      <point x="462" y="141" type="line"/>
      <point x="462" y="341"/>
      <point x="128" y="236"/>
      <point x="128" y="391" type="curve"/>
      <point x="82" y="391" type="line"/>
    </contour>
    <contour>
      <point x="386" y="-4"/>
      <point x="462" y="54"/>
      <point x="462" y="141" type="curve"/>
      <point x="416" y="141" type="line"/>
      <point x="416" y="78"/>
      <point x="358" y="36"/>
      <point x="271" y="36" type="curve" smooth="yes"/>
      <point x="162" y="36"/>
      <point x="102" y="82"/>
      <point x="102" y="165" type="curve" smooth="yes"/>
      <point x="102" y="169"/>
      <point x="99" y="171"/>
      <point x="96" y="171" type="curve" smooth="yes"/>
      <point x="66" y="171" type="line" smooth="yes"/>
      <point x="63" y="171"/>
      <point x="60" y="169"/>
      <point x="60" y="166" type="curve" smooth="yes"/>
      <point x="60" y="57"/>
      <point x="135" y="-4"/>
      <point x="271" y="-4" type="curve" smooth="yes"/>
    </contour>
  </outline>
</glyph>
<glyph name="t" format="2">
	<advance width="329"/>
	<unicode hex="0074"/>
	<outline>
		<contour>
			<point x="110" y="678" type="curve" smooth="yes"/>
			<point x="110" y="103" type="line" smooth="yes"/>
			<point x="110" y="32"/>
			<point x="155" y="-6"/>
			<point x="254" y="-6" type="curve" smooth="yes"/>
			<point x="257" y="-6"/>
			<point x="260" y="-4"/>
			<point x="260" y="0" type="curve" smooth="yes"/>
			<point x="260" y="28" type="line" smooth="yes"/>
			<point x="260" y="31"/>
			<point x="257" y="34"/>
			<point x="254" y="34" type="curve" smooth="yes"/>
			<point x="184" y="34"/>
			<point x="152" y="60"/>
			<point x="152" y="103" type="curve" smooth="yes"/>
			<point x="152" y="695" type="line" smooth="yes"/>
			<point x="152" y="699"/>
			<point x="149" y="702"/>
			<point x="145" y="700" type="curve" smooth="yes"/>
			<point x="114" y="685" type="line" smooth="yes"/>
			<point x="111" y="683"/>
			<point x="110" y="681"/>
		</contour>
		<contour>
			<point x="36" y="520" type="line" smooth="yes"/>
			<point x="33" y="520"/>
			<point x="30" y="517"/>
			<point x="30" y="514" type="curve" smooth="yes"/>
			<point x="30" y="486" type="line" smooth="yes"/>
			<point x="30" y="483"/>
			<point x="33" y="480"/>
			<point x="36" y="480" type="curve" smooth="yes"/>
			<point x="273" y="480" type="line" smooth="yes"/>
			<point x="276" y="480"/>
			<point x="279" y="483"/>
			<point x="279" y="486" type="curve" smooth="yes"/>
			<point x="279" y="514" type="line" smooth="yes"/>
			<point x="279" y="517"/>
			<point x="276" y="520"/>
			<point x="273" y="520" type="curve" smooth="yes"/>
		</contour>
	</outline>
</glyph>
<glyph name="u" format="2">
	<advance width="548"/>
	<unicode hex="0075"/>
	<outline>
		<contour>
			<point x="468" y="6" type="curve" smooth="yes"/>
			<point x="468" y="514" type="line" smooth="yes"/>
			<point x="468" y="517"/>
			<point x="465" y="520"/>
			<point x="462" y="520" type="curve" smooth="yes"/>
			<point x="431" y="520" type="line" smooth="yes"/>
			<point x="428" y="520"/>
			<point x="425" y="517"/>
			<point x="425" y="514" type="curve" smooth="yes"/>
			<point x="425" y="103" type="line"/>
			<point x="429" y="104" type="line"/>
			<point x="425" y="6" type="line"/>
			<point x="425" y="3"/>
			<point x="428" y="0"/>
			<point x="431" y="0" type="curve" smooth="yes"/>
			<point x="462" y="0" type="line" smooth="yes"/>
			<point x="465" y="0"/>
			<point x="468" y="3"/>
		</contour>
		<contour>
			<point x="70" y="514" type="curve" smooth="yes"/>
			<point x="70" y="202" type="line" smooth="yes"/>
			<point x="70" y="68"/>
			<point x="135" y="-6"/>
			<point x="251" y="-6" type="curve" smooth="yes"/>
			<point x="343" y="-6"/>
			<point x="395" y="30"/>
			<point x="421" y="102" type="curve"/>
			<point x="425" y="103" type="line"/>
			<point x="425" y="175" type="line"/>
			<point x="425" y="96"/>
			<point x="357" y="34"/>
			<point x="251" y="34" type="curve" smooth="yes"/>
			<point x="162" y="34"/>
			<point x="113" y="94"/>
			<point x="113" y="202" type="curve" smooth="yes"/>
			<point x="113" y="514" type="line" smooth="yes"/>
			<point x="113" y="517"/>
			<point x="110" y="520"/>
			<point x="107" y="520" type="curve" smooth="yes"/>
			<point x="76" y="520" type="line" smooth="yes"/>
			<point x="73" y="520"/>
			<point x="70" y="517"/>
		</contour>
	</outline>
</glyph>
<glyph name="v" format="1">
  <advance width="535"/>
  <unicode hex="0076"/>
  <outline>
    <contour>
      <point x="236" y="4" type="line" smooth="yes"/>
      <point x="237" y="1"/>
      <point x="239" y="0"/>
      <point x="241" y="0" type="curve" smooth="yes"/>
      <point x="292" y="0" type="line" smooth="yes"/>
      <point x="294" y="0"/>
      <point x="296" y="1"/>
      <point x="297" y="4" type="curve" smooth="yes"/>
      <point x="494" y="510" type="line" smooth="yes"/>
      <point x="496" y="515"/>
      <point x="493" y="520"/>
      <point x="488" y="520" type="curve" smooth="yes"/>
      <point x="455" y="520" type="line" smooth="yes"/>
      <point x="453" y="520"/>
      <point x="451" y="519"/>
      <point x="450" y="516" type="curve" smooth="yes"/>
      <point x="275" y="56" type="line"/>
      <point x="267" y="33"/>
      <point x="266" y="33"/>
      <point x="258" y="56" type="curve"/>
      <point x="85" y="516" type="line" smooth="yes"/>
      <point x="84" y="519"/>
      <point x="82" y="520"/>
      <point x="80" y="520" type="curve" smooth="yes"/>
      <point x="47" y="520" type="line" smooth="yes"/>
      <point x="42" y="520"/>
      <point x="39" y="515"/>
      <point x="41" y="510" type="curve" smooth="yes"/>
    </contour>
  </outline>
</glyph>
<glyph name="w" format="1">
  <advance width="795"/>
  <unicode hex="0077"/>
  <outline>
    <contour>
      <point x="205" y="4" type="line" smooth="yes"/>
      <point x="206" y="1"/>
      <point x="208" y="0"/>
      <point x="210" y="0" type="curve" smooth="yes"/>
      <point x="265" y="0" type="line" smooth="yes"/>
      <point x="267" y="0"/>
      <point x="269" y="1"/>
      <point x="270" y="4" type="curve"/>
      <point x="392" y="457" type="line"/>
      <point x="397" y="480"/>
      <point x="398" y="480"/>
      <point x="403" y="457" type="curve"/>
      <point x="523" y="4" type="line"/>
      <point x="524" y="1"/>
      <point x="526" y="0"/>
      <point x="528" y="0" type="curve" smooth="yes"/>
      <point x="583" y="0" type="line" smooth="yes"/>
      <point x="585" y="0"/>
      <point x="587" y="1"/>
      <point x="588" y="4" type="curve" smooth="yes"/>
      <point x="754" y="510" type="line"/>
      <point x="756" y="515"/>
      <point x="753" y="520"/>
      <point x="748" y="520" type="curve" smooth="yes"/>
      <point x="715" y="520" type="line" smooth="yes"/>
      <point x="713" y="520"/>
      <point x="711" y="519"/>
      <point x="710" y="516" type="curve"/>
      <point x="565" y="56" type="line"/>
      <point x="559" y="33"/>
      <point x="554" y="33"/>
      <point x="548" y="56" type="curve"/>
      <point x="430" y="516" type="line"/>
      <point x="429" y="519"/>
      <point x="427" y="520"/>
      <point x="425" y="520" type="curve" smooth="yes"/>
      <point x="370" y="520" type="line" smooth="yes"/>
      <point x="368" y="520"/>
      <point x="366" y="519"/>
      <point x="365" y="516" type="curve"/>
      <point x="245" y="56" type="line"/>
      <point x="239" y="33"/>
      <point x="234" y="33"/>
      <point x="228" y="56" type="curve"/>
      <point x="85" y="516" type="line"/>
      <point x="84" y="519"/>
      <point x="82" y="520"/>
      <point x="80" y="520" type="curve" smooth="yes"/>
      <point x="47" y="520" type="line" smooth="yes"/>
      <point x="42" y="520"/>
      <point x="39" y="515"/>
      <point x="41" y="510" type="curve"/>
    </contour>
  </outline>
</glyph>
<glyph name="x" format="1">
  <advance width="499"/>
  <unicode hex="0078"/>
  <outline>
    <contour>
      <point x="219" y="267" type="line"/>
      <point x="51" y="513" type="line"/>
      <point x="48" y="517"/>
      <point x="50" y="520"/>
      <point x="55" y="520" type="curve" smooth="yes"/>
      <point x="93" y="520" type="line" smooth="yes"/>
      <point x="96" y="520"/>
      <point x="99" y="518"/>
      <point x="101" y="516" type="curve"/>
      <point x="250" y="291" type="line"/>
      <point x="398" y="516" type="line"/>
      <point x="400" y="518"/>
      <point x="403" y="520"/>
      <point x="406" y="520" type="curve" smooth="yes"/>
      <point x="444" y="520" type="line" smooth="yes"/>
      <point x="449" y="520"/>
      <point x="451" y="517"/>
      <point x="448" y="513" type="curve"/>
      <point x="279" y="267" type="line"/>
      <point x="458" y="7" type="line"/>
      <point x="461" y="3"/>
      <point x="459" y="0"/>
      <point x="454" y="0" type="curve" smooth="yes"/>
      <point x="414" y="0" type="line" smooth="yes"/>
      <point x="411" y="0"/>
      <point x="408" y="2"/>
      <point x="406" y="4" type="curve"/>
      <point x="250" y="242" type="line"/>
      <point x="93" y="4" type="line"/>
      <point x="91" y="2"/>
      <point x="88" y="0"/>
      <point x="85" y="0" type="curve" smooth="yes"/>
      <point x="45" y="0" type="line" smooth="yes"/>
      <point x="40" y="0"/>
      <point x="38" y="3"/>
      <point x="41" y="7" type="curve"/>
    </contour>
  </outline>
</glyph>
<glyph name="y" format="1">
  <advance width="535"/>
  <unicode hex="0079"/>
  <outline>
    <contour>
      <point x="236" y="4" type="line" smooth="yes"/>
      <point x="237" y="1"/>
      <point x="239" y="0"/>
      <point x="241" y="0" type="curve" smooth="yes"/>
      <point x="275" y="0" type="line"/>
      <point x="275" y="56" type="line"/>
      <point x="267" y="33"/>
      <point x="266" y="33"/>
      <point x="258" y="56" type="curve"/>
      <point x="85" y="516" type="line" smooth="yes"/>
      <point x="84" y="519"/>
      <point x="82" y="520"/>
      <point x="80" y="520" type="curve" smooth="yes"/>
      <point x="47" y="520" type="line" smooth="yes"/>
      <point x="42" y="520"/>
      <point x="39" y="515"/>
      <point x="41" y="510" type="curve" smooth="yes"/>
    </contour>
    <contour>
      <point x="497" y="517"/>
      <point x="493" y="520"/>
      <point x="488" y="520" type="curve" smooth="yes"/>
      <point x="455" y="520" type="line" smooth="yes"/>
      <point x="452" y="520"/>
      <point x="451" y="519"/>
      <point x="450" y="516" type="curve" smooth="yes"/>
      <point x="216" y="-99" type="line" smooth="yes"/>
      <point x="197" y="-148"/>
      <point x="173" y="-177"/>
      <point x="128" y="-158" type="curve" smooth="yes"/>
      <point x="123" y="-156"/>
      <point x="122" y="-157"/>
      <point x="120" y="-162" type="curve" smooth="yes"/>
      <point x="111" y="-185" type="line" smooth="yes"/>
      <point x="109" y="-190"/>
      <point x="110" y="-191"/>
      <point x="114" y="-193" type="curve" smooth="yes"/>
      <point x="167" y="-219"/>
      <point x="218" y="-194"/>
      <point x="242" y="-132" type="curve" smooth="yes"/>
      <point x="494" y="510" type="line" smooth="yes"/>
    </contour>
  </outline>
</glyph>
<glyph name="z" format="1">
  <advance width="508"/>
  <unicode hex="007A"/>
  <outline>
    <contour>
      <point x="80" y="486" type="line" smooth="yes"/>
      <point x="80" y="482"/>
      <point x="82" y="480"/>
      <point x="86" y="480" type="curve" smooth="yes"/>
      <point x="389" y="480" type="line" smooth="yes"/>
      <point x="394" y="480"/>
      <point x="395" y="477"/>
      <point x="392" y="473" type="curve" smooth="yes"/>
      <point x="63" y="43" type="line" smooth="yes"/>
      <point x="61" y="40"/>
      <point x="60" y="39"/>
      <point x="60" y="36" type="curve" smooth="yes"/>
      <point x="60" y="6" type="line" smooth="yes"/>
      <point x="60" y="2"/>
      <point x="63" y="0"/>
      <point x="66" y="0" type="curve" smooth="yes"/>
      <point x="442" y="0" type="line" smooth="yes"/>
      <point x="446" y="0"/>
      <point x="448" y="2"/>
      <point x="448" y="6" type="curve" smooth="yes"/>
      <point x="448" y="34" type="line" smooth="yes"/>
      <point x="448" y="38"/>
      <point x="446" y="40"/>
      <point x="442" y="40" type="curve" smooth="yes"/>
      <point x="119" y="40" type="line" smooth="yes"/>
      <point x="114" y="40"/>
      <point x="113" y="43"/>
      <point x="116" y="47" type="curve" smooth="yes"/>
      <point x="445" y="477" type="line" smooth="yes"/>
      <point x="447" y="480"/>
      <point x="448" y="481"/>
      <point x="448" y="484" type="curve" smooth="yes"/>
      <point x="448" y="514" type="line" smooth="yes"/>
      <point x="448" y="518"/>
      <point x="446" y="520"/>
      <point x="442" y="520" type="curve" smooth="yes"/>
      <point x="86" y="520" type="line" smooth="yes"/>
      <point x="82" y="520"/>
      <point x="80" y="518"/>
      <point x="80" y="514" type="curve" smooth="yes"/>
    </contour>
  </outline>
</glyph>
<glyph name="acute" format="2">
	<advance width="10"/>
	<unicode hex="00B4"/>
	<outline>
		<contour>
			<point x="-191" y="761" type="line" smooth="yes"/>
			<point x="-194" y="761"/>
			<point x="-197" y="759"/>
			<point x="-198" y="757" type="curve" smooth="yes"/>
			<point x="-289" y="608" type="line" smooth="yes"/>
			<point x="-291" y="604"/>
			<point x="-289" y="601"/>
			<point x="-285" y="601" type="curve" smooth="yes"/>
			<point x="-251" y="601" type="line" smooth="yes"/>
			<point x="-248" y="601"/>
			<point x="-245" y="603"/>
			<point x="-243" y="605" type="curve" smooth="yes"/>
			<point x="-149" y="754" type="line" smooth="yes"/>
			<point x="-147" y="758"/>
			<point x="-149" y="761"/>
			<point x="-153" y="761" type="curve" smooth="yes"/>
		</contour>
	</outline>
</glyph>
<glyph name="endash" format="1">
  <advance width="512"/>
  <unicode hex="2013"/>
  <outline>
    <contour>
      <point x="40" y="281" type="line" smooth="yes"/>
      <point x="40" y="278"/>
      <point x="43" y="275"/>
      <point x="46" y="275" type="curve" smooth="yes"/>
      <point x="466" y="275" type="line" smooth="yes"/>
      <point x="469" y="275"/>
      <point x="472" y="278"/>
      <point x="472" y="281" type="curve" smooth="yes"/>
      <point x="472" y="309" type="line" smooth="yes"/>
      <point x="472" y="312"/>
      <point x="469" y="315"/>
      <point x="466" y="315" type="curve" smooth="yes"/>
      <point x="46" y="315" type="line" smooth="yes"/>
      <point x="43" y="315"/>
      <point x="40" y="312"/>
      <point x="40" y="309" type="curve" smooth="yes"/>
    </contour>
  </outline>
</glyph>
<glyph name="zero.zero" format="2">
	<advance width="692"/>
	<outline>
		<contour>
			<point x="154" y="93" type="line"/>
			<point x="183" y="65" type="line"/>
			<point x="539" y="610" type="line"/>
			<point x="508" y="635" type="line"/>
		</contour>
		<component base="zero"/>
	</outline>
</glyph>
